<svg width="136" height="216" viewBox="0 0 136 216" fill="none" xmlns="http://www.w3.org/2000/svg">
<path d="M135.241 67.2243C135.136 49.2903 127.911 32.1327 115.155 19.526C102.399 6.91918 85.1582 -0.104098 67.2243 0.00116642C49.2903 0.106431 32.1327 7.33161 19.526 20.0873C6.91919 32.8429 -0.104098 50.0841 0.00116641 68.0181C0.157966 95.1151 21.8258 113.333 35.585 134.707C39.848 141.322 39.505 166.175 39.505 166.175L96.884 165.842C96.884 165.842 96.2764 140.999 100.451 134.325C113.946 112.794 135.398 94.3213 135.241 67.2243Z" fill="#407BFF"/>
<path opacity="0.5" d="M135.241 67.2243C135.136 49.2903 127.911 32.1327 115.155 19.526C102.399 6.91918 85.1582 -0.104098 67.2243 0.00116642C49.2903 0.106431 32.1327 7.33161 19.526 20.0873C6.91919 32.8429 -0.104098 50.0841 0.00116641 68.0181C0.157966 95.1151 21.8258 113.333 35.585 134.707C39.848 141.322 39.505 166.175 39.505 166.175L96.884 165.842C96.884 165.842 96.2764 140.999 100.451 134.325C113.946 112.794 135.398 94.3213 135.241 67.2243Z" fill="white"/>
<path opacity="0.3" d="M127.205 54.7293C127.205 97.3005 100.627 145.575 67.7385 145.605C34.8497 145.634 8.13487 91.7047 8.10547 54.8371C8.10547 32.1207 34.7321 13.6771 67.6209 13.6771C100.51 13.6771 127.185 32.0129 127.205 54.7293Z" fill="white"/>
<path opacity="0.4" d="M106.272 96.2029C106.28 103.788 104.038 111.204 99.8303 117.515C95.6227 123.826 89.6381 128.747 82.6334 131.656C75.6287 134.566 67.9187 135.332 60.4782 133.86C53.0378 132.387 46.2012 128.741 40.8331 123.382C35.4651 118.024 31.8066 111.194 30.3205 103.756C28.8343 96.3179 29.5872 88.6065 32.484 81.5966C35.3808 74.5867 40.2913 68.5933 46.5944 64.3744C52.8976 60.1555 60.3103 57.9005 67.8951 57.8947C72.9305 57.8895 77.9176 58.8764 82.5716 60.7989C87.2255 62.7214 91.4551 65.5419 95.0189 69.0992C98.5826 72.6566 101.411 76.8812 103.341 81.5317C105.272 86.1822 106.268 91.1675 106.272 96.2029Z" fill="white"/>
<path opacity="0.4" d="M94.5716 105.905C94.5716 120.781 82.5274 125.309 67.651 125.328C52.7746 125.348 40.75 120.83 40.75 105.954C40.75 91.0775 52.7452 86.7458 67.6216 86.7458C82.498 86.7458 94.5618 91.0285 94.5716 105.905Z" fill="white"/>
<path d="M83.6046 215.704H51.3429L42.3857 203.983H92.5715L83.6046 215.704Z" fill="#407BFF"/>
<path opacity="0.5" d="M83.6046 215.704H51.3429L42.3857 203.983H92.5715L83.6046 215.704Z" fill="white"/>
<path d="M36.585 158.1C36.5837 157.82 36.6374 157.544 36.7431 157.285C36.8488 157.027 37.0043 156.791 37.2009 156.593C37.3975 156.395 37.6312 156.237 37.8887 156.129C38.1462 156.021 38.4225 155.964 38.7018 155.963L96.0416 155.669C96.6039 155.667 97.1444 155.887 97.5448 156.282C97.9451 156.677 98.1728 157.214 98.178 157.776C98.1806 158.056 98.1277 158.333 98.0225 158.592C97.9173 158.851 97.7618 159.087 97.565 159.286C97.3681 159.484 97.1339 159.642 96.8758 159.75C96.6177 159.857 96.3408 159.913 96.0612 159.913L38.7214 160.216C38.4421 160.218 38.1653 160.164 37.9068 160.058C37.6483 159.953 37.4132 159.797 37.2148 159.6C37.0164 159.404 36.8587 159.17 36.7506 158.913C36.6426 158.655 36.5863 158.379 36.585 158.1Z" fill="#407BFF"/>
<path d="M103.264 167.008C103.264 169.087 102.438 171.081 100.968 172.552C99.4975 174.022 97.5034 174.848 95.4241 174.848H87.4665C86.8859 174.99 86.2904 175.062 85.6927 175.063L39.7699 175.142C37.8007 175.013 35.9527 174.145 34.5947 172.713C33.2367 171.282 32.4687 169.39 32.444 167.417C32.4192 165.444 33.1396 163.534 34.4612 162.068C35.7828 160.603 37.6085 159.689 39.5739 159.511H47.7079C48.2305 159.379 48.7664 159.306 49.3053 159.295H49.4817L95.4339 159.217C97.503 159.219 99.4873 160.04 100.954 161.499C102.421 162.959 103.251 164.939 103.264 167.008Z" fill="#407BFF"/>
<path d="M103.264 167.008C103.264 169.087 102.438 171.081 100.968 172.552C99.4975 174.022 97.5034 174.848 95.4241 174.848H87.4665C86.8859 174.99 86.2904 175.062 85.6927 175.063L39.7699 175.142C37.8007 175.013 35.9527 174.145 34.5947 172.713C33.2367 171.282 32.4687 169.39 32.444 167.417C32.4192 165.444 33.1396 163.534 34.4612 162.068C35.7828 160.603 37.6085 159.689 39.5739 159.511H47.7079C48.2305 159.379 48.7664 159.306 49.3053 159.295H49.4817L95.4339 159.217C97.503 159.219 99.4873 160.04 100.954 161.499C102.421 162.959 103.251 164.939 103.264 167.008Z" fill="#407BFF"/>
<g opacity="0.2">
<path d="M103.264 167.008C103.264 169.087 102.438 171.081 100.968 172.552C99.4975 174.022 97.5034 174.848 95.4241 174.848H87.4665C86.8859 174.99 86.2904 175.062 85.6927 175.063L39.7699 175.142C37.8007 175.013 35.9527 174.145 34.5947 172.713C33.2367 171.282 32.4687 169.39 32.444 167.417C32.4192 165.444 33.1396 163.534 34.4612 162.068C35.7828 160.603 37.6085 159.689 39.5739 159.511H47.7079C48.2305 159.379 48.7664 159.306 49.3053 159.295H49.4817L95.4339 159.217C97.503 159.219 99.4873 160.04 100.954 161.499C102.421 162.959 103.251 164.939 103.264 167.008Z" fill="white"/>
</g>
<path d="M100.529 182.247C100.569 183.239 100.412 184.229 100.068 185.16C99.724 186.091 99.1998 186.945 98.5252 187.674C97.8506 188.402 97.0389 188.99 96.1367 189.404C95.2345 189.818 94.2594 190.05 93.2674 190.087H85.8782C85.3375 190.229 84.781 190.301 84.222 190.302H41.494C39.5357 190.162 37.7014 189.291 36.3539 187.863C35.0064 186.435 34.2437 184.554 34.2166 182.591C34.1895 180.628 34.9 178.726 36.2076 177.261C37.5152 175.797 39.3247 174.876 41.2784 174.681H48.844C49.3313 174.557 49.8309 174.488 50.3336 174.475H93.2282C97.256 174.417 100.529 177.886 100.529 182.247Z" fill="#407BFF"/>
<path opacity="0.3" d="M100.529 182.247C100.569 183.239 100.412 184.229 100.068 185.16C99.724 186.091 99.1998 186.945 98.5252 187.674C97.8506 188.402 97.0389 188.99 96.1367 189.404C95.2345 189.818 94.2594 190.05 93.2674 190.087H85.8782C85.3375 190.229 84.781 190.301 84.222 190.302H41.494C39.5357 190.162 37.7014 189.291 36.3539 187.863C35.0064 186.435 34.2437 184.554 34.2166 182.591C34.1895 180.628 34.9 178.726 36.2076 177.261C37.5152 175.797 39.3247 174.876 41.2784 174.681H48.844C49.3313 174.557 49.8309 174.488 50.3336 174.475H93.2282C97.256 174.417 100.529 177.886 100.529 182.247Z" fill="white"/>
<path d="M97.8052 197.094C97.8052 201.416 94.8162 204.934 91.1118 204.885H84.2518C83.7551 205.028 83.2399 205.098 82.7229 205.091L43.2192 205.012C39.4952 205.012 36.467 201.494 36.4474 197.172C36.4278 192.85 39.3874 189.479 42.9938 189.391H49.9812C50.4288 189.269 50.8893 189.2 51.3532 189.185H51.5296L91.0432 189.264C94.7574 189.264 97.7856 192.772 97.8052 197.094Z" fill="#407BFF"/>
<path opacity="0.4" d="M97.8052 197.094C97.8052 201.416 94.8162 204.934 91.1118 204.885H84.2518C83.7551 205.028 83.2399 205.098 82.7229 205.091L43.2192 205.012C39.4952 205.012 36.467 201.494 36.4474 197.172C36.4278 192.85 39.3874 189.479 42.9938 189.391H49.9812C50.4288 189.269 50.8893 189.2 51.3532 189.185H51.5296L91.0432 189.264C94.7574 189.264 97.7856 192.772 97.8052 197.094Z" fill="white"/>
<path d="M40.9942 207.1C40.9916 206.82 41.0444 206.542 41.1495 206.282C41.2546 206.022 41.41 205.786 41.6067 205.587C41.8034 205.387 42.0375 205.229 42.2957 205.12C42.5538 205.011 42.8309 204.955 43.111 204.953L91.6308 204.855C92.1924 204.858 92.7303 205.082 93.1283 205.478C93.5263 205.874 93.7523 206.411 93.7574 206.972C93.76 207.252 93.7072 207.529 93.602 207.788C93.4967 208.047 93.3412 208.283 93.1444 208.482C92.9476 208.68 92.7133 208.838 92.4552 208.946C92.1971 209.053 91.9203 209.109 91.6406 209.109L43.1208 209.207C42.8428 209.208 42.5673 209.154 42.31 209.049C42.0527 208.944 41.8186 208.789 41.6211 208.594C41.4237 208.398 41.2667 208.165 41.1591 207.909C41.0515 207.653 40.9955 207.378 40.9942 207.1Z" fill="#407BFF"/>
<path d="M55.9587 69.6088L51.8525 71.8922C52.0882 73.1911 52.4157 74.4715 52.8325 75.724L57.5267 75.6456C58.3657 77.6848 59.4731 79.603 60.8195 81.3492L58.4087 85.377C59.2816 86.374 60.2213 87.3104 61.2213 88.1798L65.2491 85.769C66.9895 87.119 68.9049 88.2267 70.9429 89.0618L70.8645 93.756C72.1191 94.1895 73.4029 94.5333 74.7061 94.785L76.9895 90.6788C79.1712 90.9794 81.3837 90.9794 83.5653 90.6788L85.8487 94.785C87.1719 94.5361 88.4754 94.1922 89.7491 93.756L89.6707 89.0618C91.7077 88.2244 93.6228 87.1169 95.3645 85.769L99.3923 88.1798C100.392 87.3104 101.332 86.374 102.205 85.377L99.7843 81.3492C101.137 79.6054 102.248 77.6869 103.087 75.6456L107.781 75.724C108.21 74.4714 108.554 73.1912 108.81 71.8922L104.694 69.6088C104.995 67.4239 104.995 65.2081 104.694 63.0232L108.81 60.7398C108.554 59.4408 108.21 58.1607 107.781 56.908L103.087 56.9864C102.248 54.9472 101.141 53.0291 99.7941 51.2828L102.205 47.255C101.332 46.2549 100.392 45.3152 99.3923 44.4424L95.3645 46.863C93.6228 45.5152 91.7077 44.4077 89.6707 43.5702L89.7491 38.8662C88.4907 38.4584 87.2075 38.1311 85.9075 37.8862L83.6241 42.0022C81.4425 41.7016 79.23 41.7016 77.0483 42.0022L74.7649 37.8862C73.4649 38.1311 72.1818 38.4584 70.9233 38.8662L71.0017 43.5702C68.9637 44.4054 67.0483 45.5131 65.3079 46.863L61.2801 44.4424C60.28 45.3152 59.3403 46.2549 58.4675 47.255L60.8783 51.2828C59.5319 53.0291 58.4245 54.9472 57.5855 56.9864L52.8913 56.908C52.4745 58.1605 52.147 59.441 51.9113 60.7398L56.0175 63.0232C55.717 65.2081 55.717 67.4239 56.0175 69.6088H55.9587ZM67.1503 66.904C67.1503 64.2579 67.9351 61.6712 69.4054 59.4711C70.8758 57.2711 72.9655 55.5565 75.4104 54.5444C77.8553 53.5322 80.5455 53.2678 83.1407 53.7848C85.7358 54.3017 88.1194 55.5767 89.9898 57.4485C91.8602 59.3203 93.1335 61.7048 93.6485 64.3003C94.1635 66.8959 93.8972 69.5858 92.8833 72.03C91.8693 74.4741 90.1532 76.5627 87.9521 78.0314C85.7509 79.5001 83.1637 80.283 80.5175 80.281C76.9714 80.2784 73.5715 78.8679 71.0649 76.3595C68.5584 73.8511 67.1503 70.4501 67.1503 66.904Z" fill="white"/>
<path d="M35.2513 104.889L30.7139 107.407C30.8643 108.109 31.0507 108.803 31.2725 109.485L36.4665 109.407C36.9154 110.425 37.4741 111.391 38.1325 112.288L35.4571 116.737C35.9394 117.273 36.4497 117.784 36.9859 118.266L41.4351 115.59C42.3321 116.249 43.2982 116.807 44.3163 117.256L44.2379 122.45C44.9204 122.672 45.6138 122.859 46.3155 123.009L48.8341 118.472C49.9416 118.589 51.0585 118.589 52.1661 118.472L54.6847 123.009C55.3896 122.859 56.0863 122.672 56.7721 122.45L56.6839 117.256C57.702 116.807 58.6681 116.249 59.5651 115.59L64.0143 118.266C64.5529 117.786 65.0633 117.276 65.5431 116.737L62.8677 112.288C63.5261 111.391 64.0847 110.425 64.5337 109.407L69.7277 109.485C69.954 108.804 70.1405 108.11 70.2863 107.407L65.7489 104.889C65.8665 103.781 65.8665 102.664 65.7489 101.557L70.2863 99.0382C70.1405 98.3323 69.954 97.6353 69.7277 96.9509L64.5337 97.0391C64.0847 96.021 63.5261 95.0548 62.8677 94.1578L65.5431 89.7087C65.0633 89.1701 64.5529 88.6596 64.0143 88.1798L59.5651 90.8553C58.6681 90.1969 57.702 89.6382 56.6839 89.1892L56.7721 83.9953C56.0876 83.7689 55.3907 83.5824 54.6847 83.4366L52.1661 87.9741C51.0585 87.8564 49.9416 87.8564 48.8341 87.9741L46.3155 83.4366C45.6127 83.5824 44.919 83.769 44.2379 83.9953L44.3163 89.1892C43.2982 89.6382 42.3321 90.1969 41.4351 90.8553L36.9859 88.1798C36.4473 88.6596 35.9369 89.1701 35.4571 89.7087L38.1325 94.1578C37.4741 95.0548 36.9154 96.021 36.4665 97.0391L31.2725 96.9509C31.0507 97.6366 30.8643 98.3334 30.7139 99.0382L35.2513 101.557C35.1337 102.664 35.1337 103.781 35.2513 104.889ZM41.4351 103.223C41.4351 101.43 41.9667 99.6773 42.9628 98.1866C43.9589 96.6959 45.3746 95.534 47.031 94.8479C48.6875 94.1618 50.5101 93.9823 52.2686 94.332C54.027 94.6818 55.6422 95.5452 56.91 96.8129C58.1778 98.0807 59.0411 99.6959 59.3909 101.454C59.7407 103.213 59.5611 105.035 58.875 106.692C58.1889 108.348 57.027 109.764 55.5363 110.76C54.0456 111.756 52.293 112.288 50.5001 112.288C49.3096 112.288 48.1309 112.053 47.031 111.598C45.9312 111.142 44.9319 110.475 44.0901 109.633C43.2484 108.791 42.5807 107.792 42.1251 106.692C41.6695 105.592 41.4351 104.413 41.4351 103.223Z" fill="white"/>
<path opacity="0.5" d="M35.2513 104.889L30.7139 107.407C30.8643 108.109 31.0507 108.803 31.2725 109.485L36.4665 109.407C36.9154 110.425 37.4741 111.391 38.1325 112.288L35.4571 116.737C35.9394 117.273 36.4497 117.784 36.9859 118.266L41.4351 115.59C42.3321 116.249 43.2982 116.807 44.3163 117.256L44.2379 122.45C44.9204 122.672 45.6138 122.859 46.3155 123.009L48.8341 118.472C49.9416 118.589 51.0585 118.589 52.1661 118.472L54.6847 123.009C55.3896 122.859 56.0863 122.672 56.7721 122.45L56.6839 117.256C57.702 116.807 58.6681 116.249 59.5651 115.59L64.0143 118.266C64.5529 117.786 65.0633 117.276 65.5431 116.737L62.8677 112.288C63.5261 111.391 64.0847 110.425 64.5337 109.407L69.7277 109.485C69.954 108.804 70.1405 108.11 70.2863 107.407L65.7489 104.889C65.8665 103.781 65.8665 102.664 65.7489 101.557L70.2863 99.0382C70.1405 98.3323 69.954 97.6353 69.7277 96.9509L64.5337 97.0391C64.0847 96.021 63.5261 95.0548 62.8677 94.1578L65.5431 89.7087C65.0633 89.1701 64.5529 88.6596 64.0143 88.1798L59.5651 90.8553C58.6681 90.1969 57.702 89.6382 56.6839 89.1892L56.7721 83.9953C56.0876 83.7689 55.3907 83.5824 54.6847 83.4366L52.1661 87.9741C51.0585 87.8564 49.9416 87.8564 48.8341 87.9741L46.3155 83.4366C45.6127 83.5824 44.919 83.769 44.2379 83.9953L44.3163 89.1892C43.2982 89.6382 42.3321 90.1969 41.4351 90.8553L36.9859 88.1798C36.4473 88.6596 35.9369 89.1701 35.4571 89.7087L38.1325 94.1578C37.4741 95.0548 36.9154 96.021 36.4665 97.0391L31.2725 96.9509C31.0507 97.6366 30.8643 98.3334 30.7139 99.0382L35.2513 101.557C35.1337 102.664 35.1337 103.781 35.2513 104.889ZM41.4351 103.223C41.4351 101.43 41.9667 99.6773 42.9628 98.1866C43.9589 96.6959 45.3746 95.534 47.031 94.8479C48.6875 94.1618 50.5101 93.9823 52.2686 94.332C54.027 94.6818 55.6422 95.5452 56.91 96.8129C58.1778 98.0807 59.0411 99.6959 59.3909 101.454C59.7407 103.213 59.5611 105.035 58.875 106.692C58.1889 108.348 57.027 109.764 55.5363 110.76C54.0456 111.756 52.293 112.288 50.5001 112.288C49.3096 112.288 48.1309 112.053 47.031 111.598C45.9312 111.142 44.9319 110.475 44.0901 109.633C43.2484 108.791 42.5807 107.792 42.1251 106.692C41.6695 105.592 41.4351 104.413 41.4351 103.223Z" fill="white"/>
</svg>
