<svg width="94" height="251" viewBox="0 0 94 251" fill="none" xmlns="http://www.w3.org/2000/svg">
<path d="M20.9844 229.159L19.5284 242.72L12.1289 241.948L12.8569 227.16L20.9844 229.159Z" fill="#FFC1A7"/>
<path d="M8.63006 242.089C7.84006 242.115 7.06777 241.852 6.45693 241.351C6.38715 241.231 6.35596 241.093 6.36763 240.954C6.37929 240.816 6.43324 240.685 6.52212 240.579C6.66646 240.384 6.88045 240.251 7.11971 240.21C8.391 239.949 10.901 241.644 11.0096 241.72C11.0425 241.736 11.0682 241.764 11.0822 241.798C11.0962 241.832 11.0974 241.87 11.0857 241.905C11.0761 241.94 11.0568 241.972 11.0299 241.997C11.003 242.022 10.9696 242.039 10.9336 242.046C10.1683 242.125 9.39776 242.139 8.63006 242.089ZM7.54349 240.536C7.4318 240.519 7.31835 240.519 7.20666 240.536C7.13121 240.541 7.05816 240.564 6.99381 240.604C6.92946 240.644 6.87571 240.699 6.8372 240.764C6.68508 240.97 6.72854 241.079 6.77201 241.144C7.08711 241.655 8.94514 241.807 10.3794 241.742C9.51828 241.165 8.55619 240.756 7.54349 240.536Z" fill="#407BFF"/>
<path d="M10.9127 242.013C10.9006 242.018 10.8877 242.021 10.8747 242.021C10.8616 242.021 10.8487 242.018 10.8366 242.013C9.97824 241.546 8.29404 239.786 8.51136 238.96C8.51136 238.754 8.71782 238.525 9.20678 238.504C9.38511 238.5 9.56243 238.532 9.72844 238.597C9.89444 238.662 10.0458 238.76 10.1738 238.884C10.8008 239.754 11.1356 240.8 11.13 241.872C11.1305 241.904 11.1215 241.936 11.1041 241.963C11.0867 241.99 11.0617 242.011 11.0322 242.024C11.0131 242.033 10.992 242.037 10.971 242.035C10.95 242.033 10.9299 242.026 10.9127 242.013ZM9.30456 238.841H9.1959C8.86993 238.841 8.83734 238.971 8.82647 239.014C8.73955 239.514 9.8261 240.872 10.7171 241.492C10.6934 240.636 10.4049 239.808 9.89132 239.123C9.73331 238.961 9.51994 238.864 9.29369 238.851L9.30456 238.841Z" fill="#407BFF"/>
<path d="M11.781 241.046L19.9738 241.644C20.1237 241.657 20.2651 241.719 20.3754 241.821C20.4857 241.924 20.5585 242.06 20.5822 242.209L21.571 248.978C21.5957 249.122 21.5912 249.269 21.5578 249.411C21.5244 249.553 21.4627 249.687 21.3766 249.804C21.2904 249.922 21.1814 250.021 21.0561 250.096C20.9309 250.17 20.7919 250.219 20.6474 250.239H20.4192C17.4746 249.967 14.856 249.608 11.1834 249.348C6.83715 249.033 7.92373 249.63 2.806 249.348C-0.268977 249.163 -0.584074 245.632 0.741536 245.556C6.75024 245.24 7.49996 243.491 9.96646 241.524C10.4915 241.146 11.1379 240.976 11.781 241.046Z" fill="#263238"/>
<path opacity="0.2" d="M12.4541 235.364L17.9739 235.146L20.2448 236.092L18.3107 238.83L12.2803 238.504L12.4541 235.364Z" fill="black"/>
<path d="M39.5322 92.5236L26.4173 171.843L22.071 238.373L10.9663 237.004C10.9663 237.004 9.01053 203.723 10.8686 168.779C12.5527 137.214 18.0182 104.28 18.8114 93.7514L22.9186 86.4823L31.1004 87.4928L39.5322 92.5236Z" fill="#407BFF"/>
<path d="M89.7752 232.071L84.1685 234.972C84.1685 234.972 82.8755 232.712 80.811 229.029C80.3438 228.214 79.8439 227.323 79.3115 226.378L86.07 223.422H86.1569L86.3525 223.868C86.6893 224.672 87.0044 225.421 87.3087 226.117C88.819 229.768 89.7752 232.071 89.7752 232.071Z" fill="#FFC1A7"/>
<path d="M80.0603 234.777C79.3792 235.177 78.5761 235.316 77.8003 235.168C77.6815 235.095 77.5885 234.986 77.534 234.858C77.4795 234.729 77.4662 234.587 77.496 234.451C77.5236 234.212 77.6447 233.993 77.8329 233.842C78.8434 233.006 81.8531 233.288 81.9835 233.31C82.0212 233.311 82.0574 233.325 82.0868 233.348C82.1162 233.372 82.1372 233.404 82.1465 233.44C82.1514 233.477 82.147 233.514 82.1337 233.548C82.1204 233.582 82.0986 233.612 82.0705 233.636C81.4314 234.068 80.7593 234.45 80.0603 234.777ZM78.3653 233.929C78.2582 233.975 78.1592 234.037 78.0719 234.114C78.0095 234.154 77.9573 234.209 77.9195 234.273C77.8818 234.337 77.8596 234.409 77.8546 234.483C77.8546 234.744 77.9089 234.82 77.9741 234.853C78.4957 235.157 80.2342 234.386 81.4403 233.647C80.4066 233.55 79.364 233.646 78.3653 233.929Z" fill="#407BFF"/>
<path d="M82.0501 233.636C82.0254 233.644 81.9987 233.644 81.974 233.636C80.9853 233.636 78.66 232.897 78.4644 232.06C78.3992 231.865 78.4644 231.571 78.8556 231.321C79.1691 231.144 79.54 231.097 79.8878 231.191C81.0939 231.517 82.1153 233.288 82.1587 233.364C82.1765 233.39 82.186 233.42 82.186 233.451C82.186 233.482 82.1765 233.513 82.1587 233.538C82.1525 233.563 82.1388 233.586 82.1194 233.604C82.1 233.621 82.0759 233.632 82.0501 233.636ZM79.1055 231.615H79.0077C78.7252 231.778 78.7686 231.897 78.7686 231.952C78.9425 232.43 80.5506 233.114 81.6263 233.234C81.1955 232.492 80.5468 231.9 79.7683 231.539C79.5548 231.458 79.319 231.458 79.1055 231.539V231.615Z" fill="#407BFF"/>
<path d="M82.8207 232.234L88.7533 229.485C88.8908 229.423 89.0455 229.41 89.1917 229.447C89.3379 229.485 89.4669 229.571 89.5574 229.692L93.6646 235.179C93.7542 235.293 93.82 235.424 93.8582 235.564C93.8964 235.704 93.9062 235.85 93.8869 235.994C93.8677 236.138 93.8198 236.276 93.7462 236.401C93.6726 236.526 93.5746 236.635 93.4582 236.722C93.3959 236.772 93.3262 236.812 93.2517 236.841C90.5353 238.015 89.6226 238.319 86.2651 239.84C82.2883 241.633 83.5161 241.655 78.8765 243.828C76.0731 245.143 74.1173 242.176 75.2365 241.481C80.3868 238.308 82.2122 232.463 82.8207 232.234Z" fill="#263238"/>
<path opacity="0.2" d="M87.2532 226.073L80.7338 229.029C80.2666 228.214 79.7668 227.323 79.2344 226.378L85.9928 223.422L86.2753 223.824C86.6339 224.628 86.949 225.378 87.2532 226.073Z" fill="black"/>
<path d="M27.3408 92.0673C27.3408 92.0673 41.0315 158.522 47.5835 174.429C53.4075 188.554 79.2352 228.301 79.2352 228.301L87.2975 224.281C87.2975 224.281 78.3333 198.898 69.7169 182.589C66.7071 176.906 63.5778 172.538 62.2413 169.474C60.4702 165.421 61.0135 98.3694 50.9627 91.7522L27.3408 92.0673Z" fill="#407BFF"/>
<path opacity="0.2" d="M33.6539 126.272L29.1338 154.697C27.9603 138.399 30.2203 113.321 30.2203 113.321L33.6539 126.272Z" fill="black"/>
<path d="M17.6481 82.6576C17.9764 79.8195 18.0527 76.9579 17.8763 74.1063C15.5619 46.9965 15.5293 44.3453 15.7575 39.5753C15.7767 39.1563 15.9217 38.7528 16.1737 38.4174C16.4257 38.0821 16.7729 37.8305 17.17 37.6955C35.9133 31.2739 52.2878 34.2946 56.5254 36.6742C62.1756 39.8469 59.9264 43.1935 59.8612 44.2258C59.3288 52.2664 54.1458 68.1846 54.0698 81.169C54.0698 83.0814 54.2654 87.6884 54.3958 90.231C54.4247 90.7322 54.2728 91.2272 53.9678 91.626C53.6627 92.0248 53.2247 92.3009 52.7333 92.4041C48.5174 93.2842 28.2965 93.4907 24.8303 93.4255C22.5345 93.3781 20.2426 93.2149 17.9632 92.9365C17.6774 92.8967 17.4028 92.7983 17.1567 92.6475C16.9107 92.4967 16.6984 92.2967 16.5332 92.0601C16.3679 91.8235 16.2533 91.5553 16.1965 91.2723C16.1397 90.9894 16.1419 90.6978 16.203 90.4157C16.7137 88.0904 17.496 84.3526 17.6481 82.6576Z" fill="#57C7FF"/>
<path d="M40.706 22.7227C39.9998 26.9277 39.337 33.0776 42.3468 35.7614C42.3468 35.7614 42.3468 40.0425 30.5684 44.9647C26.1352 38.9559 29.2754 36.1092 29.2754 36.1092C33.9367 34.8705 33.752 32.969 32.861 29.7419L40.706 22.7227Z" fill="#FFC1A7"/>
<path opacity="0.2" d="M37.5328 25.5586L32.9258 29.7636C33.1434 30.517 33.2961 31.2877 33.3822 32.0671C35.175 31.7629 37.9457 30.1765 38.2717 28.2207C38.2513 27.2856 37.9973 26.3704 37.5328 25.5586Z" fill="black"/>
<path d="M45.9974 15.1537C44.3024 22.0643 43.7265 25.0197 39.5432 27.9535C33.2412 32.3867 25.1245 28.7793 24.7225 21.4993C24.3748 14.9799 27.2216 4.70097 34.5776 3.21238C36.1979 2.86788 37.8794 2.94348 39.4623 3.43197C41.0452 3.92047 42.4768 4.80563 43.6212 6.00335C44.7655 7.20106 45.5846 8.67153 46.0005 10.275C46.4164 11.8785 46.4154 13.5617 45.9974 15.1646V15.1537Z" fill="#FFC1A7"/>
<path d="M34.0123 14.5191C33.9037 15.0841 33.5234 15.497 33.1539 15.4318C32.7845 15.3666 32.5672 14.8451 32.665 14.2801C32.7628 13.7151 33.154 13.3022 33.5234 13.3674C33.8928 13.4326 34.0884 13.9758 34.0123 14.5191Z" fill="#263238"/>
<path d="M27.667 13.4217C27.5584 13.9975 27.178 14.3996 26.8086 14.3344C26.4392 14.2692 26.211 13.7368 26.3088 13.1718C26.4066 12.6067 26.8086 12.1938 27.178 12.2699C27.5475 12.346 27.7322 12.8566 27.667 13.4217Z" fill="#263238"/>
<path d="M31.8498 22.2338C31.5616 22.2233 31.2746 22.1906 30.9914 22.136C30.9492 22.1281 30.9115 22.1048 30.8854 22.0707C30.8593 22.0366 30.8467 21.994 30.8502 21.9513C30.8647 21.9093 30.893 21.8736 30.9305 21.8499C30.9681 21.8262 31.0125 21.816 31.0566 21.8209C31.7616 21.9655 32.4908 21.9425 33.1853 21.7537C33.8798 21.565 34.5203 21.2158 35.0552 20.7343C35.0879 20.7065 35.1299 20.6918 35.1728 20.6931C35.2158 20.6943 35.2568 20.7115 35.2878 20.7412C35.3189 20.7709 35.3379 20.8111 35.3411 20.854C35.3442 20.8968 35.3314 20.9394 35.3051 20.9733C34.8419 21.4027 34.2978 21.7353 33.7045 21.9517C33.1112 22.1681 32.4806 22.264 31.8498 22.2338Z" fill="#263238"/>
<path d="M37.0329 13.6499C36.9627 13.6612 36.8908 13.6493 36.828 13.6159C36.7652 13.5826 36.7151 13.5296 36.6852 13.4651C36.38 13.0033 35.9835 12.6088 35.5201 12.3061C35.0566 12.0033 34.5361 11.7987 33.9905 11.7049C33.9463 11.6992 33.9036 11.6848 33.8649 11.6626C33.8262 11.6404 33.7923 11.6108 33.7651 11.5755C33.7378 11.5402 33.7178 11.4999 33.7061 11.4568C33.6945 11.4138 33.6914 11.3688 33.6971 11.3246C33.7028 11.2804 33.7172 11.2377 33.7394 11.199C33.7616 11.1603 33.7912 11.1264 33.8265 11.0992C33.8618 11.0719 33.9022 11.0519 33.9452 11.0402C33.9883 11.0286 34.0332 11.0255 34.0774 11.0312C34.7362 11.1426 35.3634 11.3942 35.9165 11.7692C36.4695 12.1441 36.9355 12.6336 37.2828 13.2044C37.3206 13.2838 37.3259 13.3749 37.2975 13.4581C37.2691 13.5414 37.2092 13.6102 37.1307 13.6499C37.0993 13.6625 37.0643 13.6625 37.0329 13.6499Z" fill="#263238"/>
<path d="M26.5046 11.2159C26.4455 11.2287 26.3841 11.2254 26.3267 11.2063C26.2694 11.1872 26.2182 11.153 26.1786 11.1073C26.1471 11.076 26.1221 11.0387 26.105 10.9977C26.0879 10.9567 26.0791 10.9127 26.0791 10.8682C26.0791 10.8238 26.0879 10.7798 26.105 10.7388C26.1221 10.6977 26.1471 10.6605 26.1786 10.6292C26.566 10.2441 27.0422 9.96039 27.5653 9.80309C28.0883 9.6458 28.6421 9.61978 29.1776 9.72734C29.2606 9.74563 29.3332 9.79562 29.3798 9.86666C29.4265 9.9377 29.4436 10.0242 29.4275 10.1076C29.4173 10.1501 29.3988 10.19 29.373 10.2251C29.3471 10.2603 29.3145 10.2899 29.277 10.3122C29.2395 10.3344 29.1979 10.349 29.1547 10.3549C29.1115 10.3608 29.0675 10.358 29.0254 10.3467C28.6037 10.279 28.172 10.3106 27.7647 10.4389C27.3573 10.5671 26.9854 10.7885 26.6785 11.0855C26.6595 11.1177 26.6344 11.1458 26.6046 11.1681C26.5747 11.1905 26.5408 11.2067 26.5046 11.2159Z" fill="#263238"/>
<path d="M43.8998 33.784L42.672 33.5775L35.794 37.337L33.6209 37.424L29.5354 33.9578L28.1772 34.2838C26.906 38.2174 26.6665 42.4115 27.4818 46.4642L29.8396 58.0578L32.2735 70.7381L32.7842 69.5754L34.6966 65.2292L37.3152 60.2418L42.0852 48.0397L43.4326 43.0198C44.2442 40.0193 44.3815 36.8764 43.8346 33.8166L43.8998 33.784Z" fill="#263238"/>
<path opacity="0.1" d="M36.4788 37.4239C29.1119 37.5108 28.2861 34.7944 28.2861 34.7944V34.1533C28.2861 34.1533 26.113 38.3366 32.4694 39.0646C38.8258 39.7926 43.1177 36.7611 44.0196 34.9356C43.3133 35.9027 41.4118 37.3696 36.4788 37.4239Z" fill="black"/>
<path d="M45.9431 22.5271C47.8229 21.0494 47.6055 18.5611 48.7138 16.4532C50.6371 12.7915 48.7138 11.2703 48.7138 11.2703C50.3437 8.99935 48.9855 5.83744 45.8996 6.17428C44.9163 4.33394 43.584 2.7027 41.9772 1.37166C40.4979 0.386673 38.7382 -0.0898994 36.9641 0.0139999C35.1899 0.117899 33.4979 0.796619 32.1437 1.94754C31.93 1.74051 31.6736 1.58267 31.3926 1.48506C31.1115 1.38745 30.8124 1.35242 30.5164 1.38244C30.2204 1.41245 29.9345 1.50678 29.6787 1.65882C29.4229 1.81086 29.2034 2.01694 29.0356 2.26265C28.8678 2.50836 28.7557 2.78776 28.7071 3.08132C28.6585 3.37488 28.6747 3.67551 28.7544 3.96218C28.8341 4.24885 28.9756 4.51465 29.1687 4.74096C29.3619 4.96728 29.6022 5.14866 29.8728 5.27243C30.9176 6.68678 32.3754 7.74217 34.0452 8.29308C36.2183 9.0754 40.0322 9.26012 42.3357 9.70561C42.1922 11.592 41.9346 13.4679 41.5643 15.3232C41.1054 19.0541 41.1054 22.8273 41.5643 26.5583C43.1398 25.287 45.6715 24.4612 45.9431 22.5271Z" fill="#263238"/>
<path d="M45.7149 20.354C45.4067 20.8988 44.9935 21.3772 44.4993 21.7614C44.0051 22.1455 43.4396 22.428 42.8355 22.5923C41.2166 23.027 40.4234 21.571 40.8906 20.028C41.3144 18.659 42.6726 16.7683 44.3024 16.9965C44.6584 17.0609 44.9928 17.2131 45.275 17.4394C45.5573 17.6656 45.7787 17.9588 45.919 18.2923C46.0593 18.6258 46.1141 18.989 46.0785 19.349C46.0429 19.7091 45.9179 20.0545 45.7149 20.354Z" fill="#FFC1A7"/>
<path d="M28.3076 32.4257V35.1421C28.3076 35.1421 29.1334 37.8585 36.5003 37.7824C43.8672 37.7064 44.4866 34.4467 44.4866 34.4467V32.48C44.4896 32.1446 44.418 31.8128 44.2769 31.5086C44.1357 31.2043 43.9287 30.9353 43.6707 30.721C43.4127 30.5067 43.1103 30.3525 42.7853 30.2696C42.4604 30.1867 42.121 30.1772 41.7919 30.2417C38.1525 30.8136 34.4461 30.8136 30.8067 30.2417C30.4968 30.2086 30.1833 30.24 29.8861 30.3338C29.5889 30.4277 29.3143 30.582 29.0796 30.7872C28.8449 30.9923 28.6551 31.2437 28.5223 31.5257C28.3894 31.8077 28.3163 32.1141 28.3076 32.4257Z" fill="#263238"/>
<path d="M30.2632 14.28C29.2998 15.8326 28.1301 17.2472 26.7861 18.485C27.115 18.8164 27.5113 19.0733 27.9481 19.2383C28.3849 19.4032 28.852 19.4724 29.3178 19.4412L30.2632 14.28Z" fill="#FF371F"/>
<path d="M71.9775 81.81C71.2872 82.813 70.8683 83.9777 70.7616 85.1906C70.655 86.4035 70.8643 87.6234 71.369 88.7315C71.369 88.7315 69.2611 92.2302 70.4346 94.2947C71.608 96.3591 77.0083 94.512 77.0083 94.512C77.0083 94.512 80.0072 89.6877 77.5516 85.8955L75.5414 80.9299L71.9775 81.81Z" fill="#FFC1A7"/>
<path d="M71.4337 78.7351L70.4775 81.9948C72.9199 83.2279 75.7392 83.488 78.366 82.7228L77.5837 78.9198L71.4337 78.7351Z" fill="#407BFF"/>
<path d="M71.0535 79.2567C71.2945 71.9781 70.1894 64.7177 67.7938 57.8405C67.7938 57.8405 53.3425 49.2457 48.8876 44.6278C48.296 44.0117 47.8559 43.2664 47.6018 42.4509C47.3478 41.6354 47.2869 40.7721 47.4239 39.929C47.5609 39.0859 47.892 38.2862 48.3912 37.5931C48.8904 36.9 49.5439 36.3324 50.3001 35.9353C51.2062 35.4649 52.2249 35.2545 53.2432 35.3273C54.2616 35.4002 55.2399 35.7536 56.0698 36.3482C61.3396 40.1621 72.5747 48.5286 75.8018 52.8314C79.1701 57.3407 78.4747 73.2371 78.0401 79.6587C75.7111 80.0608 73.321 79.9233 71.0535 79.2567Z" fill="#263238"/>
<path d="M71.0535 79.2567C71.2945 71.9781 70.1894 64.7177 67.7938 57.8405C67.7938 57.8405 53.3425 49.2457 48.8876 44.6278C48.296 44.0117 47.8559 43.2664 47.6018 42.4509C47.3478 41.6354 47.2869 40.7721 47.4239 39.929C47.5609 39.0859 47.892 38.2862 48.3912 37.5931C48.8904 36.9 49.5439 36.3324 50.3001 35.9353C51.2062 35.4649 52.2249 35.2545 53.2432 35.3273C54.2616 35.4002 55.2399 35.7536 56.0698 36.3482C61.3396 40.1621 72.5747 48.5286 75.8018 52.8314C79.1701 57.3407 78.4747 73.2371 78.0401 79.6587C75.7111 80.0608 73.321 79.9233 71.0535 79.2567Z" fill="#263238"/>
</svg>
