<svg width="53" height="37" viewBox="0 0 53 37" fill="none" xmlns="http://www.w3.org/2000/svg">
<path d="M11.8762 10.8097C11.786 9.59543 11.3835 8.42506 10.7077 7.41222C10.0318 6.39938 9.10556 5.57848 8.01886 5.02921C8.01886 5.02921 7.4647 0.987184 5.25897 0.107066C3.05325 -0.773052 0 4.06216 0 4.06216C0 4.06216 0.673656 9.69058 4.97646 11.114L9.64871 13.7217L11.8762 10.8097Z" fill="#FFC1A7"/>
<path d="M14.2342 12.8633L12.9629 9.74487C10.2891 10.3099 7.92637 11.8618 6.3457 14.0911L9.34463 16.5685L14.2342 12.8633Z" fill="#407BFF"/>
<path d="M14.2021 12.2223C18.5781 18.0443 23.9933 23.0065 30.1746 26.8583C37.2132 24.076 44.7566 22.799 52.3188 23.1097L48.1356 32.6389C48.1356 32.6389 34.0102 37.5719 27.0888 35.8008C21.656 34.3991 12.2137 21.5668 8.53027 16.2969C10.0831 14.5213 12.0238 13.1271 14.2021 12.2223Z" fill="#263238"/>
</svg>
