<svg width="57" height="69" viewBox="0 0 57 69" fill="none" xmlns="http://www.w3.org/2000/svg">
<path opacity="0.1" d="M35.371 36.1543C42.3362 31.5074 44.2154 22.094 39.5685 15.1288C34.9216 8.16373 25.5082 6.28445 18.5431 10.9314C11.578 15.5783 9.69871 24.9917 14.3456 31.9568C18.9925 38.9219 28.4059 40.8012 35.371 36.1543Z" fill="black"/>
<path d="M25.3534 37.0587L18.6456 67.7612L16.0163 67.1874L22.7241 36.4849L25.3534 37.0587Z" fill="#407BFF"/>
<path opacity="0.5" d="M22.7241 36.4849L25.3534 37.0587L18.6456 67.7612L16.0163 67.1874" fill="black"/>
<path d="M24.2072 51.0322L20.9048 66.121C20.846 66.3939 20.7339 66.6525 20.5748 66.8818C20.4157 67.1112 20.2129 67.3069 19.9779 67.4575C19.7429 67.6082 19.4805 67.7109 19.2056 67.7597C18.9308 67.8085 18.6491 67.8025 18.3766 67.742L16.3054 67.2824C15.7545 67.1597 15.2744 66.8239 14.9703 66.3484C14.6661 65.873 14.5624 65.2964 14.6819 64.7447L17.9844 49.6559C18.1268 49.0463 18.5045 48.5178 19.0351 48.1855C19.5657 47.8533 20.2061 47.7444 20.8166 47.8824L22.4035 48.2384C23.0104 48.3745 23.5396 48.7436 23.877 49.2662C24.2144 49.7888 24.333 50.423 24.2072 51.0322Z" fill="#407BFF"/>
<path opacity="0.5" d="M24.2072 51.0322L20.9048 66.121C20.846 66.3939 20.7339 66.6525 20.5748 66.8818C20.4157 67.1112 20.2129 67.3069 19.9779 67.4575C19.7429 67.6082 19.4805 67.7109 19.2056 67.7597C18.9308 67.8085 18.6491 67.8025 18.3766 67.742L16.3054 67.2824C15.7545 67.1597 15.2744 66.8239 14.9703 66.3484C14.6661 65.873 14.5624 65.2964 14.6819 64.7447L17.9844 49.6559C18.1268 49.0463 18.5045 48.5178 19.0351 48.1855C19.5657 47.8533 20.2061 47.7444 20.8166 47.8824L22.4035 48.2384C23.0104 48.3745 23.5396 48.7436 23.877 49.2662C24.2144 49.7888 24.333 50.423 24.2072 51.0322Z" fill="white"/>
<path d="M36.258 37.201L35.8701 37.4571C32.1986 39.8077 27.7467 40.611 23.4853 39.692C19.2239 38.773 15.4987 36.2062 13.1224 32.5514C10.7461 28.8966 9.91142 24.4505 10.8004 20.1827C11.6894 15.9149 14.23 12.1718 17.8679 9.76982C21.5059 7.36784 25.9461 6.50189 30.22 7.36083C34.4939 8.21977 38.2548 10.7339 40.6823 14.3549C43.1099 17.9758 44.007 22.4098 43.1782 26.6897C42.3494 30.9696 39.8618 34.748 36.258 37.201ZM19.2253 12.18C16.312 14.1423 14.2692 17.1541 13.5236 20.5866C12.8433 23.6863 13.2585 26.9259 14.6986 29.7538C16.1387 32.5818 18.5145 34.823 21.4216 36.0959C24.3286 37.3687 27.587 37.5945 30.6418 36.7347C33.6965 35.8749 36.3588 33.9828 38.1751 31.3805C39.9915 28.7782 40.8495 25.6267 40.6032 22.4628C40.3569 19.2989 39.0213 16.3183 36.8241 14.0285C34.6269 11.7387 31.7038 10.2814 28.5527 9.90481C25.4017 9.52822 22.2175 10.2556 19.5426 11.9631L19.2253 12.18Z" fill="#407BFF"/>
<path opacity="0.5" d="M17.7037 14.3023C14.1068 18.1068 12.7586 26.1383 16.3403 31.3268C17.3011 32.3376 17.9078 32.936 18.7389 33.7279C18.7891 33.7809 18.8558 33.8154 18.9281 33.8258C19.0004 33.8361 19.0741 33.8216 19.1371 33.7847C19.2002 33.7478 19.2489 33.6907 19.2753 33.6226C19.3017 33.5545 19.3043 33.4794 19.2826 33.4097C17.3752 26.5306 17.9861 19.1965 21.0052 12.7277C21.038 12.6633 21.0482 12.5897 21.0342 12.5188C21.0203 12.4479 20.983 12.3837 20.9283 12.3365C20.8736 12.2893 20.8047 12.2617 20.7325 12.2583C20.6603 12.2548 20.589 12.2756 20.53 12.3173C19.5965 12.9226 18.873 13.4411 17.7037 14.3023Z" fill="white"/>
<g opacity="0.5">
<path d="M35.0352 13.2905C36.3418 20.59 35.6763 28.106 33.1075 35.0623C33.0875 35.1268 33.0444 35.1817 32.9865 35.2165L31.6872 36.1226C31.6346 36.1605 31.5716 36.1811 31.5068 36.1817C31.442 36.1822 31.3787 36.1628 31.3254 36.1259C31.2722 36.089 31.2317 36.0365 31.2094 35.9757C31.1872 35.9149 31.1844 35.8486 31.2013 35.7861C33.1631 28.2739 33.8406 20.4841 33.2052 12.746C33.1955 12.6386 33.2183 12.5308 33.2706 12.4365C33.3229 12.3422 33.4023 12.2657 33.4985 12.217C33.5947 12.1683 33.7033 12.1495 33.8103 12.1632C33.9172 12.1768 34.0176 12.2223 34.0985 12.2936L34.8638 12.9915C34.954 13.0682 35.0146 13.1739 35.0352 13.2905Z" fill="white"/>
</g>
</svg>
