<svg width="73" height="58" viewBox="0 0 73 58" fill="none" xmlns="http://www.w3.org/2000/svg">
<path d="M66.7263 19.1902C67.052 22.348 52.5139 26.4271 34.2534 28.2949C15.9929 30.1628 0.921718 29.12 0.605103 25.9583C0.288488 22.7967 14.8213 18.7305 33.078 16.8536C51.3348 14.9767 66.3893 16.0052 66.7263 19.1902Z" fill="#407BFF"/>
<path opacity="0.8" d="M66.7263 19.1902C67.052 22.348 52.5139 26.4271 34.2534 28.2949C15.9929 30.1628 0.921718 29.12 0.605103 25.9583C0.288488 22.7967 14.8213 18.7305 33.078 16.8536C51.3348 14.9767 66.3893 16.0052 66.7263 19.1902Z" fill="white"/>
<path d="M26.1498 45.3821C25.8135 45.5151 25.4409 45.5245 25.0983 45.4088C24.7842 45.3121 24.5091 45.118 24.3126 44.8546C24.1162 44.5913 24.0086 44.2722 24.0055 43.9436L23.7571 32.1028L26.9776 31.1663L27.1254 43.857C27.1308 44.1995 27.0253 44.5345 26.8247 44.8121C26.6558 45.0601 26.4225 45.2571 26.1498 45.3821ZM24.7268 32.8437L24.9591 43.9368C24.9613 44.0592 25.0017 44.1778 25.0746 44.2762C25.1475 44.3745 25.2493 44.4476 25.3657 44.4854C25.4821 44.5231 25.6075 44.5235 25.7242 44.4866C25.8409 44.4498 25.9432 44.3774 26.0168 44.2796C26.0977 44.1788 26.139 44.0518 26.1328 43.9227L25.9856 32.4751L24.7268 32.8437Z" fill="#263238"/>
<path d="M46.6358 43.2715C46.3638 43.3887 46.0639 43.425 45.7719 43.3759C45.4798 43.3269 45.2082 43.1946 44.9895 42.995C44.7404 42.7676 44.5698 42.4671 44.5019 42.1368L42.1163 29.609L45.4678 29.8716L47.6222 41.5187C47.6849 41.8406 47.6438 42.1741 47.5048 42.4711C47.3659 42.7681 47.1362 43.0134 46.8489 43.1715L46.6358 43.2715ZM43.2776 30.7053L45.4558 41.9279C45.4667 42.0547 45.5171 42.1748 45.5999 42.2714C45.6912 42.3539 45.8062 42.4057 45.9286 42.4194C46.051 42.4331 46.1746 42.4081 46.282 42.3478C46.3894 42.2875 46.4751 42.195 46.5271 42.0833C46.5791 41.9717 46.5947 41.8465 46.5718 41.7255L44.5571 30.8169L43.2776 30.7053Z" fill="#263238"/>
<path d="M25.1306 34.2895L23.2246 34.4832L22.8388 30.7767L25.3643 30.5144L25.1306 34.2895Z" fill="#407BFF"/>
<path d="M25.1309 34.2894L27.1487 32.9435L27.3265 29.4151L25.3646 30.5144L25.1309 34.2894Z" fill="#407BFF"/>
<path opacity="0.1" d="M25.1306 34.2895L23.2246 34.4832L22.8388 30.7767L25.3643 30.5144L25.1306 34.2895Z" fill="white"/>
<path d="M44.5194 32.299L46.4254 32.1052L46.0486 28.3949L43.5231 28.6573L44.5194 32.299Z" fill="#407BFF"/>
<path d="M44.5197 32.299L42.2605 31.3975L41.3772 27.9741L43.5235 28.6573L44.5197 32.299Z" fill="#407BFF"/>
<path opacity="0.1" d="M44.5194 32.299L46.4254 32.1052L46.0486 28.3949L43.5231 28.6573L44.5194 32.299Z" fill="white"/>
<path d="M18.1436 23.3836C18.0623 23.4177 13.6526 24.2047 11.6422 24.5804C11.6325 24.5802 11.6229 24.5825 11.6142 24.587C11.6056 24.5915 11.5982 24.5982 11.5927 24.6062C11.5872 24.6143 11.5839 24.6237 11.5829 24.6334C11.582 24.6431 11.5834 24.6529 11.5872 24.6619C11.591 24.6709 11.5969 24.6788 11.6045 24.6849C11.6122 24.6911 11.6211 24.6952 11.6307 24.697C11.6403 24.6987 11.6502 24.6981 11.6595 24.6951C11.6688 24.6921 11.6772 24.6868 11.6839 24.6798L16.8432 24.3116L18.1436 23.3836Z" fill="#407BFF"/>
<g opacity="0.3">
<path d="M18.1436 23.3836C18.0623 23.4177 13.6526 24.2047 11.6422 24.5804C11.6325 24.5802 11.6229 24.5825 11.6142 24.587C11.6056 24.5915 11.5982 24.5982 11.5927 24.6062C11.5872 24.6143 11.5839 24.6237 11.5829 24.6334C11.582 24.6431 11.5834 24.6529 11.5872 24.6619C11.591 24.6709 11.5969 24.6788 11.6045 24.6849C11.6122 24.6911 11.6211 24.6952 11.6307 24.697C11.6403 24.6987 11.6502 24.6981 11.6595 24.6951C11.6688 24.6921 11.6772 24.6868 11.6839 24.6798L16.8432 24.3116L18.1436 23.3836Z" fill="white"/>
</g>
<path d="M18.8704 25.874L16.2431 26.1472L16.1619 25.3204C16.143 25.1477 16.1585 24.973 16.2076 24.8063C16.2566 24.6397 16.3382 24.4844 16.4477 24.3495C16.5572 24.2146 16.6923 24.1028 16.8453 24.0206C16.9983 23.9383 17.1662 23.8872 17.339 23.8702C17.6868 23.8372 18.0336 23.9421 18.3048 24.1622C18.576 24.3823 18.75 24.7002 18.7892 25.0473L18.8704 25.874Z" fill="#407BFF"/>
<path d="M17.9357 22.8865L18.0066 23.5369L16.7111 23.6659L16.6402 23.0155C16.6271 22.8445 16.6804 22.6751 16.7891 22.5424C16.8977 22.4098 17.0533 22.3241 17.2235 22.3032C17.3086 22.2942 17.3948 22.3021 17.4768 22.3266C17.5589 22.3511 17.6353 22.3917 17.7015 22.446C17.7678 22.5002 17.8226 22.5671 17.8628 22.6427C17.903 22.7184 17.9278 22.8012 17.9357 22.8865Z" fill="#407BFF"/>
<path opacity="0.4" d="M18.8704 25.874L16.2431 26.1472L16.1619 25.3204C16.143 25.1477 16.1585 24.973 16.2076 24.8063C16.2566 24.6397 16.3382 24.4844 16.4477 24.3495C16.5572 24.2146 16.6923 24.1028 16.8453 24.0206C16.9983 23.9383 17.1662 23.8872 17.339 23.8702C17.6868 23.8372 18.0336 23.9421 18.3048 24.1622C18.576 24.3823 18.75 24.7002 18.7892 25.0473L18.8704 25.874Z" fill="white"/>
<path d="M21.5626 22.8424L22.9174 22.8799C22.97 22.8769 23.0221 22.8903 23.0667 22.9182C23.1114 22.9461 23.1462 22.9872 23.1666 23.0357C23.187 23.0842 23.1918 23.1379 23.1804 23.1893C23.1691 23.2407 23.1421 23.2873 23.1032 23.3227C22.5669 23.7108 21.9484 23.9702 21.2957 24.0808L19.6929 24.3387C19.6711 24.3536 19.6465 24.3639 19.6206 24.369L17.7775 24.0794L16.9746 23.7361L18.7028 23.245C19.6298 22.9651 20.5944 22.8294 21.5626 22.8424Z" fill="#407BFF"/>
<path opacity="0.6" d="M21.5626 22.8424L22.9174 22.8799C22.97 22.8769 23.0221 22.8903 23.0667 22.9182C23.1114 22.9461 23.1462 22.9872 23.1666 23.0357C23.187 23.0842 23.1918 23.1379 23.1804 23.1893C23.1691 23.2407 23.1421 23.2873 23.1032 23.3227C22.5669 23.7108 21.9484 23.9702 21.2957 24.0808L19.6929 24.3387C19.6711 24.3536 19.6465 24.3639 19.6206 24.369L17.7775 24.0794L16.9746 23.7361L18.7028 23.245C19.6298 22.9651 20.5944 22.8294 21.5626 22.8424Z" fill="white"/>
<path d="M26.733 25.8705L26.4408 28.2141L16.8732 27.7002C16.6422 27.7238 16.4112 27.6547 16.2311 27.508C16.051 27.3614 15.9365 27.1492 15.9128 26.9181C15.8892 26.687 15.9583 26.456 16.105 26.2759C16.2516 26.0958 16.4639 25.9814 16.6949 25.9577L18.57 25.7663C18.7241 25.7495 18.8799 25.7746 19.0209 25.8389C19.162 25.9031 19.2831 26.0042 19.3715 26.1315L26.733 25.8705Z" fill="#407BFF"/>
<path opacity="0.4" d="M26.733 25.8705L26.4408 28.2141L16.8732 27.7002C16.6422 27.7238 16.4112 27.6547 16.2311 27.508C16.051 27.3614 15.9365 27.1492 15.9128 26.9181C15.8892 26.687 15.9583 26.456 16.105 26.2759C16.2516 26.0958 16.4639 25.9814 16.6949 25.9577L18.57 25.7663C18.7241 25.7495 18.8799 25.7746 19.0209 25.8389C19.162 25.9031 19.2831 26.0042 19.3715 26.1315L26.733 25.8705Z" fill="white"/>
<path d="M49.1611 20.1819L55.7766 20.0425C55.788 20.0426 55.7992 20.0461 55.8087 20.0525C55.8181 20.0589 55.8255 20.068 55.83 20.0785C55.8344 20.0891 55.8357 20.1007 55.8336 20.112C55.8315 20.1232 55.8262 20.1336 55.8183 20.1419L50.699 20.8333L49.1611 20.1819Z" fill="#407BFF"/>
<g opacity="0.3">
<path d="M49.1611 20.1819L55.7766 20.0425C55.788 20.0426 55.7992 20.0461 55.8087 20.0525C55.8181 20.0589 55.8255 20.068 55.83 20.0785C55.8344 20.0891 55.8357 20.1007 55.8336 20.112C55.8315 20.1232 55.8262 20.1336 55.8183 20.1419L50.699 20.8333L49.1611 20.1819Z" fill="white"/>
</g>
<path d="M48.9697 22.7914L51.5969 22.5183L51.5068 21.6953C51.4898 21.5224 51.4387 21.3546 51.3564 21.2016C51.2741 21.0486 51.1623 20.9135 51.0274 20.804C50.8926 20.6945 50.7373 20.6129 50.5706 20.5638C50.404 20.5148 50.2292 20.4993 50.0566 20.5182C49.7084 20.555 49.389 20.7283 49.1684 21.0001C48.9478 21.272 48.8439 21.6201 48.8795 21.9684L48.9697 22.7914Z" fill="#407BFF"/>
<path d="M49.2779 19.6758L49.336 20.3209L50.6316 20.1919L50.5607 19.5415C50.5312 19.3813 50.4424 19.2381 50.312 19.1405C50.1816 19.0429 50.0192 18.9981 49.8572 19.0151C49.6952 19.032 49.5455 19.1095 49.4381 19.232C49.3307 19.3545 49.2735 19.5129 49.2779 19.6758Z" fill="#407BFF"/>
<path opacity="0.4" d="M48.9697 22.7914L51.5969 22.5183L51.5068 21.6953C51.4898 21.5224 51.4387 21.3546 51.3564 21.2016C51.2741 21.0486 51.1623 20.9135 51.0274 20.804C50.8926 20.6945 50.7373 20.6129 50.5706 20.5638C50.404 20.5148 50.2292 20.4993 50.0566 20.5182C49.7084 20.555 49.389 20.7283 49.1684 21.0001C48.9478 21.272 48.8439 21.6201 48.8795 21.9684L48.9697 22.7914Z" fill="white"/>
<path d="M45.6859 20.3855L44.3606 20.697C44.3103 20.7104 44.2654 20.7389 44.2318 20.7786C44.1981 20.8184 44.1775 20.8675 44.1726 20.9193C44.1677 20.9711 44.1788 21.0232 44.2044 21.0685C44.23 21.1138 44.2689 21.1502 44.3158 21.1728C44.932 21.4557 45.6068 21.588 46.2843 21.5586L47.9011 21.4861L47.9824 21.452L49.735 20.7912L50.4492 20.2897L48.6487 20.1523C47.655 20.0753 46.6554 20.154 45.6859 20.3855Z" fill="#407BFF"/>
<path opacity="0.6" d="M45.6859 20.3855L44.3606 20.697C44.3103 20.7104 44.2654 20.7389 44.2318 20.7786C44.1981 20.8184 44.1775 20.8675 44.1726 20.9193C44.1677 20.9711 44.1788 21.0232 44.2044 21.0685C44.23 21.1138 44.2689 21.1502 44.3158 21.1728C44.932 21.4557 45.6068 21.588 46.2843 21.5586L47.9011 21.4861L47.9824 21.452L49.735 20.7912L50.4492 20.2897L48.6487 20.1523C47.655 20.0753 46.6554 20.154 45.6859 20.3855Z" fill="white"/>
<path d="M41.3177 24.386L42.0776 26.6284L51.3117 24.1684C51.5279 24.1287 51.7211 24.0088 51.8527 23.8326C51.9843 23.6565 52.0445 23.4372 52.0213 23.2186C51.9981 23 51.8932 22.7982 51.7276 22.6536C51.562 22.509 51.3479 22.4323 51.1281 22.4388L49.253 22.6302C49.0989 22.6436 48.9514 22.6992 48.8268 22.7908C48.7022 22.8825 48.6052 23.0067 48.5464 23.1498L41.3177 24.386Z" fill="#407BFF"/>
<path opacity="0.4" d="M41.3177 24.386L42.0776 26.6284L51.3117 24.1684C51.5279 24.1287 51.7211 24.0088 51.8527 23.8326C51.9843 23.6565 52.0445 23.4372 52.0213 23.2186C51.9981 23 51.8932 22.7982 51.7276 22.6536C51.562 22.509 51.3479 22.4323 51.1281 22.4388L49.253 22.6302C49.0989 22.6436 48.9514 22.6992 48.8268 22.7908C48.7022 22.8825 48.6052 23.0067 48.5464 23.1498L41.3177 24.386Z" fill="white"/>
<path d="M10.082 23.3433C10.2447 23.275 18.6293 21.5008 22.4743 20.685C22.5006 20.674 22.5303 20.6739 22.5567 20.6847C22.5832 20.6955 22.6043 20.7164 22.6154 20.7428C22.6264 20.7691 22.6265 20.7988 22.6157 20.8253C22.6049 20.8517 22.584 20.8728 22.5577 20.8839L13.2038 24.0211L10.082 23.3433Z" fill="#407BFF"/>
<path opacity="0.6" d="M10.082 23.3433C10.2447 23.275 18.6293 21.5008 22.4743 20.685C22.5006 20.674 22.5303 20.6739 22.5567 20.6847C22.5832 20.6955 22.6043 20.7164 22.6154 20.7428C22.6264 20.7691 22.6265 20.7988 22.6157 20.8253C22.6049 20.8517 22.584 20.8728 22.5577 20.8839L13.2038 24.0211L10.082 23.3433Z" fill="white"/>
<path d="M13.0481 22.9389C13.0707 23.1565 13.0284 23.376 12.9265 23.5696C12.8245 23.7632 12.6675 23.9223 12.4753 24.0267C12.283 24.1312 12.0641 24.1763 11.8462 24.1565C11.6283 24.1367 11.4212 24.0527 11.251 23.9152C11.0807 23.7778 10.955 23.593 10.8897 23.3842C10.8244 23.1753 10.8224 22.9518 10.884 22.7419C10.9456 22.5319 11.068 22.3449 11.2358 22.2045C11.4036 22.064 11.6092 21.9765 11.8267 21.9528C12.1191 21.9235 12.4112 22.0106 12.6398 22.1952C12.8684 22.3798 13.0151 22.6469 13.0481 22.9389Z" fill="#407BFF"/>
<path d="M13.0363 22.9553L10.833 23.1809L10.9458 24.2825L13.1491 24.0569L13.0363 22.9553Z" fill="#407BFF"/>
<path d="M12.6931 24.1118L11.416 24.2426L11.4749 24.8177L12.752 24.687L12.6931 24.1118Z" fill="#407BFF"/>
<path d="M3.64866 24.9047L1.28558 25.9597C1.19229 26.001 1.11423 26.0704 1.06228 26.1582C1.01033 26.246 0.987083 26.3479 0.995792 26.4495C1.0045 26.5512 1.04475 26.6476 1.11088 26.7253C1.17701 26.803 1.26574 26.8581 1.3647 26.8829C2.62199 27.1933 3.93551 27.1964 5.19424 26.8919L8.22525 26.1625C8.27682 26.1515 8.32587 26.1309 8.36985 26.1018L11.4162 24.2182L12.5848 23.0266L9.16022 23.4004C7.25532 23.6087 5.39525 24.1164 3.64866 24.9047Z" fill="#407BFF"/>
<g opacity="0.6">
<path d="M3.64866 24.9047L1.28558 25.9597C1.19229 26.001 1.11423 26.0704 1.06228 26.1582C1.01033 26.246 0.987083 26.3479 0.995792 26.4495C1.0045 26.5512 1.04475 26.6476 1.11088 26.7253C1.17701 26.803 1.26574 26.8581 1.3647 26.8829C2.62199 27.1933 3.93551 27.1964 5.19424 26.8919L8.22525 26.1625C8.27682 26.1515 8.32587 26.1309 8.36985 26.1018L11.4162 24.2182L12.5848 23.0266L9.16022 23.4004C7.25532 23.6087 5.39525 24.1164 3.64866 24.9047Z" fill="white"/>
</g>
<path d="M11.7477 24.6749L12.2937 24.619C12.8108 24.5661 13.3278 24.7207 13.7309 25.0489C14.134 25.3771 14.3902 25.852 14.4431 26.3692L14.6148 28.046L10.1303 28.5052L9.96058 26.8479C9.93119 26.5871 9.95444 26.3231 10.029 26.0716C10.1035 25.82 10.2278 25.586 10.3945 25.3833C10.5611 25.1807 10.7668 25.0135 10.9992 24.8919C11.2317 24.7702 11.4862 24.6964 11.7477 24.6749Z" fill="#407BFF"/>
<path opacity="0.2" d="M11.7477 24.6749L12.2937 24.619C12.8108 24.5661 13.3278 24.7207 13.7309 25.0489C14.134 25.3771 14.3902 25.852 14.4431 26.3692L14.6148 28.046L10.1303 28.5052L9.96058 26.8479C9.93119 26.5871 9.95444 26.3231 10.029 26.0716C10.1035 25.82 10.2278 25.586 10.3945 25.3833C10.5611 25.1807 10.7668 25.0135 10.9992 24.8919C11.2317 24.7702 11.4862 24.6964 11.7477 24.6749Z" fill="white"/>
<path d="M38.0963 35.0998L31.755 35.7406L31.985 35.1234C32.0756 34.8756 32.2339 34.6581 32.4419 34.4957C32.6499 34.3333 32.8993 34.2325 33.1618 34.2047L36.4147 33.9029C36.676 33.8753 36.9398 33.9217 37.176 34.0369C37.4122 34.152 37.6113 34.3312 37.7505 34.5541L38.0963 35.0998Z" fill="#407BFF"/>
<path opacity="0.1" d="M38.0963 35.0998L31.755 35.7406L31.985 35.1234C32.0756 34.8756 32.2339 34.6581 32.4419 34.4957C32.6499 34.3333 32.8993 34.2325 33.1618 34.2047L36.4147 33.9029C36.676 33.8753 36.9398 33.9217 37.176 34.0369C37.4122 34.152 37.6113 34.3312 37.7505 34.5541L38.0963 35.0998Z" fill="white"/>
<path opacity="0.3" d="M35.2004 30.6313L33.6016 30.7953L33.9815 34.4999L35.5803 34.3359L35.2004 30.6313Z" fill="black"/>
<path d="M31.6734 36.3853L31.8731 38.3351C31.9469 39.0566 32.5917 39.5816 33.3132 39.5077L37.3883 39.0904C38.1098 39.0166 38.6348 38.3718 38.5609 37.6503L38.3612 35.7005C38.2874 34.979 37.6426 34.454 36.9211 34.5279L32.846 34.9452C32.1245 35.0191 31.5995 35.6638 31.6734 36.3853Z" fill="#407BFF"/>
<path opacity="0.2" d="M31.6734 36.3853L31.8731 38.3351C31.9469 39.0566 32.5917 39.5816 33.3132 39.5077L37.3883 39.0904C38.1098 39.0166 38.6348 38.3718 38.5609 37.6503L38.3612 35.7005C38.2874 34.979 37.6426 34.454 36.9211 34.5279L32.846 34.9452C32.1245 35.0191 31.5995 35.6638 31.6734 36.3853Z" fill="white"/>
<path d="M37.2621 38.0004L33.0611 38.4235L33.0165 38.0384C32.9619 37.4816 33.13 36.9259 33.4839 36.4927C33.8379 36.0594 34.3489 35.7839 34.9054 35.7264C35.463 35.6692 36.0206 35.8356 36.4557 36.189C36.8908 36.5424 37.168 37.054 37.2265 37.6115L37.2621 38.0004Z" fill="#407BFF"/>
<path d="M37.2453 37.7841C37.2245 38.2972 37.0196 38.7857 36.668 39.1601C36.3164 39.5345 35.8417 39.7697 35.3309 39.8226C34.8201 39.8756 34.3072 39.7427 33.8864 39.4484C33.4655 39.1541 33.1647 38.718 33.0391 38.22C33.0413 37.6955 33.2372 37.1902 33.5893 36.8014C33.9413 36.4125 34.4247 36.1675 34.9465 36.1134C35.4682 36.0593 35.9916 36.2 36.4159 36.5084C36.8403 36.8168 37.1356 37.2711 37.2453 37.7841Z" fill="#407BFF"/>
<path opacity="0.3" d="M37.2453 37.7841C37.2245 38.2972 37.0196 38.7857 36.668 39.1601C36.3164 39.5345 35.8417 39.7697 35.3309 39.8226C34.8201 39.8756 34.3072 39.7427 33.8864 39.4484C33.4655 39.1541 33.1647 38.718 33.0391 38.22C33.0413 37.6955 33.2372 37.1902 33.5893 36.8014C33.9413 36.4125 34.4247 36.1675 34.9465 36.1134C35.4682 36.0593 35.9916 36.2 36.4159 36.5084C36.8403 36.8168 37.1356 37.2711 37.2453 37.7841Z" fill="black"/>
<path d="M36.7869 38.0083C36.8869 38.3424 36.8813 38.6993 36.771 39.0303C36.6607 39.3612 36.451 39.65 36.1705 39.8574C35.8901 40.0648 35.5524 40.1806 35.2037 40.1891C34.855 40.1975 34.5122 40.0982 34.222 39.9047C33.9318 39.7112 33.7083 39.4328 33.5821 39.1077C33.4559 38.7825 33.433 38.4263 33.5166 38.0876C33.6003 37.749 33.7863 37.4444 34.0494 37.2154C34.3125 36.9864 34.6399 36.8441 34.9868 36.8079C35.3842 36.7334 35.7949 36.8172 36.1313 37.0415C36.4676 37.2658 36.7029 37.6128 36.7869 38.0083Z" fill="#407BFF"/>
<path opacity="0.2" d="M36.7869 38.0083C36.8869 38.3424 36.8813 38.6993 36.771 39.0303C36.6607 39.3612 36.451 39.65 36.1705 39.8574C35.8901 40.0648 35.5524 40.1806 35.2037 40.1891C34.855 40.1975 34.5122 40.0982 34.222 39.9047C33.9318 39.7112 33.7083 39.4328 33.5821 39.1077C33.4559 38.7825 33.433 38.4263 33.5166 38.0876C33.6003 37.749 33.7863 37.4444 34.0494 37.2154C34.3125 36.9864 34.6399 36.8441 34.9868 36.8079C35.3842 36.7334 35.7949 36.8172 36.1313 37.0415C36.4676 37.2658 36.7029 37.6128 36.7869 38.0083Z" fill="black"/>
<path d="M36.362 38.059C36.3641 38.3618 36.2464 38.6531 36.0345 38.8694C35.8226 39.0858 35.5337 39.2095 35.231 39.2136C35.0821 39.2604 34.9246 39.2733 34.77 39.2515C34.6155 39.2297 34.4678 39.1737 34.3376 39.0875C34.2075 39.0014 34.0982 38.8872 34.0178 38.7535C33.9374 38.6197 33.8879 38.4697 33.8728 38.3143C33.8578 38.159 33.8776 38.0022 33.9308 37.8555C33.9841 37.7088 34.0694 37.5758 34.1806 37.4663C34.2918 37.3567 34.426 37.2734 34.5735 37.2223C34.7209 37.1713 34.878 37.1538 35.0331 37.1711C35.3269 37.1145 35.6311 37.1759 35.8799 37.3421C36.1287 37.5083 36.3019 37.7659 36.362 38.059Z" fill="#407BFF"/>
<path opacity="0.3" d="M36.362 38.059C36.3641 38.3618 36.2464 38.6531 36.0345 38.8694C35.8226 39.0858 35.5337 39.2095 35.231 39.2136C35.0821 39.2604 34.9246 39.2733 34.77 39.2515C34.6155 39.2297 34.4678 39.1737 34.3376 39.0875C34.2075 39.0014 34.0982 38.8872 34.0178 38.7535C33.9374 38.6197 33.8879 38.4697 33.8728 38.3143C33.8578 38.159 33.8776 38.0022 33.9308 37.8555C33.9841 37.7088 34.0694 37.5758 34.1806 37.4663C34.2918 37.3567 34.426 37.2734 34.5735 37.2223C34.7209 37.1713 34.878 37.1538 35.0331 37.1711C35.3269 37.1145 35.6311 37.1759 35.8799 37.3421C36.1287 37.5083 36.3019 37.7659 36.362 38.059Z" fill="black"/>
<path d="M35.8681 38.0218C35.8496 38.1967 35.7714 38.3599 35.6466 38.4838C35.5217 38.6077 35.358 38.6848 35.1829 38.7021C35.0079 38.7193 34.8323 38.6757 34.6856 38.5785C34.539 38.4813 34.4304 38.3365 34.3781 38.1686C34.3966 37.9937 34.4749 37.8305 34.5997 37.7065C34.7246 37.5826 34.8883 37.5055 35.0634 37.4883C35.2384 37.471 35.4141 37.5147 35.5607 37.6119C35.7073 37.7091 35.8159 37.8539 35.8681 38.0218Z" fill="#407BFF"/>
<path opacity="0.4" d="M35.8681 38.0218C35.8496 38.1967 35.7714 38.3599 35.6466 38.4838C35.5217 38.6077 35.358 38.6848 35.1829 38.7021C35.0079 38.7193 34.8323 38.6757 34.6856 38.5785C34.539 38.4813 34.4304 38.3365 34.3781 38.1686C34.3966 37.9937 34.4749 37.8305 34.5997 37.7065C34.7246 37.5826 34.8883 37.5055 35.0634 37.4883C35.2384 37.471 35.4141 37.5147 35.5607 37.6119C35.7073 37.7091 35.8159 37.8539 35.8681 38.0218Z" fill="black"/>
<path d="M35.6864 37.9174C35.6867 37.9872 35.6731 38.0565 35.6464 38.1211C35.6198 38.1857 35.5806 38.2444 35.5312 38.2938C35.4818 38.3432 35.4231 38.3823 35.3584 38.4088C35.2938 38.4354 35.2245 38.4489 35.1547 38.4486C35.0863 38.4621 35.0159 38.462 34.9476 38.4482C34.8792 38.4344 34.8143 38.4073 34.7565 38.3683C34.6987 38.3294 34.6491 38.2794 34.6107 38.2212C34.5723 38.1631 34.5457 38.0979 34.5325 38.0294C34.5425 37.891 34.6011 37.7605 34.6981 37.6611C34.795 37.5617 34.924 37.4998 35.0622 37.4864C35.2003 37.473 35.3388 37.5089 35.453 37.5878C35.5673 37.6667 35.65 37.7834 35.6864 37.9174Z" fill="#407BFF"/>
<path d="M35.4138 37.851C35.4555 37.9504 35.2975 38.0804 35.1249 38.0997C34.9523 38.1189 34.7908 38.0379 34.7815 37.9143C34.7721 37.7907 34.8978 37.6848 35.0794 37.6618C35.261 37.6387 35.4044 37.7274 35.4138 37.851Z" fill="#407BFF"/>
<path opacity="0.2" d="M35.4138 37.851C35.4555 37.9504 35.2975 38.0804 35.1249 38.0997C34.9523 38.1189 34.7908 38.0379 34.7815 37.9143C34.7721 37.7907 34.8978 37.6848 35.0794 37.6618C35.261 37.6387 35.4044 37.7274 35.4138 37.851Z" fill="white"/>
<path d="M35.4955 32.0673L33.5895 32.2611C33.2853 32.2906 32.9819 32.1985 32.7454 32.005C32.5089 31.8115 32.3586 31.5323 32.3273 31.2283C32.3114 31.0772 32.3254 30.9246 32.3685 30.7789C32.4116 30.6333 32.483 30.4976 32.5785 30.3796C32.6741 30.2615 32.792 30.1635 32.9254 30.091C33.0589 30.0185 33.2053 29.973 33.3563 29.9571L35.2623 29.7633C35.5665 29.7338 35.87 29.8258 36.1065 30.0194C36.343 30.2129 36.4932 30.4921 36.5245 30.7961C36.5404 30.9471 36.5264 31.0998 36.4833 31.2454C36.4402 31.3911 36.3688 31.5268 36.2733 31.6448C36.1777 31.7629 36.0599 31.8609 35.9264 31.9334C35.793 32.0059 35.6465 32.0514 35.4955 32.0673Z" fill="#407BFF"/>
<path d="M57.2426 23.3598L54.0258 23.6463C53.6894 23.6624 53.3693 23.7966 53.1221 24.0254L14.9023 27.9423C14.6261 27.7661 14.2978 27.69 13.9723 27.7267L10.7646 28.0095C10.5708 28.0284 10.3827 28.0853 10.211 28.177C10.0393 28.2687 9.88739 28.3933 9.76394 28.5438C9.64049 28.6943 9.54794 28.8677 9.49161 29.054C9.43527 29.2404 9.41625 29.436 9.43563 29.6297C9.474 30.0223 9.66652 30.3836 9.97097 30.6344C10.2754 30.8853 10.6669 31.0051 11.0596 30.9676L13.4035 30.7283L27.1204 30.6708L28.6231 32.7079C29.0128 33.2295 29.5308 33.6413 30.1268 33.9035C30.7228 34.1656 31.3765 34.269 32.0243 34.2037L37.5788 33.6379C38.2268 33.5694 38.8461 33.3344 39.3762 32.9556C39.9064 32.5767 40.3295 32.067 40.6041 31.4762L41.6706 29.1797L55.1083 26.4549L57.4522 26.2156C57.8437 26.1747 58.2035 25.9815 58.4538 25.6777C58.7042 25.3739 58.825 24.9838 58.7901 24.5916C58.7276 24.2325 58.5355 23.9088 58.2503 23.6818C57.9651 23.4547 57.6066 23.3402 57.2426 23.3598Z" fill="#407BFF"/>
<path opacity="0.2" d="M57.2426 23.3598L54.0258 23.6463C53.6894 23.6624 53.3693 23.7966 53.1221 24.0254L14.9023 27.9423C14.6261 27.7661 14.2978 27.69 13.9723 27.7267L10.7646 28.0095C10.5708 28.0284 10.3827 28.0853 10.211 28.177C10.0393 28.2687 9.88739 28.3933 9.76394 28.5438C9.64049 28.6943 9.54794 28.8677 9.49161 29.054C9.43527 29.2404 9.41625 29.436 9.43563 29.6297C9.474 30.0223 9.66652 30.3836 9.97097 30.6344C10.2754 30.8853 10.6669 31.0051 11.0596 30.9676L13.4035 30.7283L27.1204 30.6708L28.6231 32.7079C29.0128 33.2295 29.5308 33.6413 30.1268 33.9035C30.7228 34.1656 31.3765 34.269 32.0243 34.2037L37.5788 33.6379C38.2268 33.5694 38.8461 33.3344 39.3762 32.9556C39.9064 32.5767 40.3295 32.067 40.6041 31.4762L41.6706 29.1797L55.1083 26.4549L57.4522 26.2156C57.8437 26.1747 58.2035 25.9815 58.4538 25.6777C58.7042 25.3739 58.825 24.9838 58.7901 24.5916C58.7276 24.2325 58.5355 23.9088 58.2503 23.6818C57.9651 23.4547 57.6066 23.3402 57.2426 23.3598Z" fill="white"/>
<path d="M42.2914 25.1888C42.4557 26.7458 38.8502 28.3857 34.2642 28.8535C29.6781 29.3213 25.805 28.4485 25.6407 26.8915C25.4765 25.3344 29.082 23.6945 33.668 23.2267C38.2541 22.7589 42.131 23.6407 42.2914 25.1888Z" fill="#407BFF"/>
<path opacity="0.4" d="M42.2914 25.1888C42.4557 26.7458 38.8502 28.3857 34.2642 28.8535C29.6781 29.3213 25.805 28.4485 25.6407 26.8915C25.4765 25.3344 29.082 23.6945 33.668 23.2267C38.2541 22.7589 42.131 23.6407 42.2914 25.1888Z" fill="white"/>
<path d="M56.9833 18.5372C56.8084 18.5256 48.2385 18.4646 44.3177 18.4408C44.2887 18.4389 44.2601 18.4485 44.2383 18.4677C44.2164 18.4868 44.203 18.5138 44.2011 18.5428C44.1991 18.5718 44.2088 18.6004 44.228 18.6223C44.2471 18.6441 44.2741 18.6575 44.3031 18.6594L54.1241 19.8535L56.9833 18.5372Z" fill="#407BFF"/>
<path opacity="0.6" d="M56.9833 18.5372C56.8084 18.5256 48.2385 18.4646 44.3177 18.4408C44.2887 18.4389 44.2601 18.4485 44.2383 18.4677C44.2164 18.4868 44.203 18.5138 44.2011 18.5428C44.1991 18.5718 44.2088 18.6004 44.228 18.6223C44.2471 18.6441 44.2741 18.6575 44.3031 18.6594L54.1241 19.8535L56.9833 18.5372Z" fill="white"/>
<path d="M54.0098 18.7434C54.0335 18.9609 54.1211 19.1665 54.2615 19.3343C54.402 19.5021 54.589 19.6245 54.7989 19.6861C55.0089 19.7477 55.2324 19.7457 55.4412 19.6804C55.65 19.6151 55.8348 19.4894 55.9723 19.3192C56.1098 19.1489 56.1937 18.9418 56.2135 18.7239C56.2334 18.506 56.1882 18.2871 56.0838 18.0948C55.9793 17.9026 55.8202 17.7456 55.6266 17.6436C55.433 17.5417 55.2136 17.4994 54.9959 17.522C54.8509 17.5372 54.7102 17.5808 54.582 17.6504C54.4539 17.72 54.3407 17.8143 54.2491 17.9278C54.1574 18.0413 54.0891 18.1717 54.0481 18.3117C54.007 18.4517 53.994 18.5984 54.0098 18.7434Z" fill="#407BFF"/>
<path d="M54.119 19.8258L56.3223 19.6002L56.2095 18.4986L54.0062 18.7242L54.119 19.8258Z" fill="#407BFF"/>
<path d="M54.6457 20.3588L55.9229 20.228L55.864 19.6528L54.5868 19.7836L54.6457 20.3588Z" fill="#407BFF"/>
<path d="M63.6106 18.7543L66.1389 19.3091C66.2396 19.3307 66.3309 19.3835 66.3999 19.46C66.4689 19.5364 66.512 19.6327 66.5232 19.7351C66.5343 19.8374 66.513 19.9407 66.4621 20.0303C66.4112 20.1198 66.3335 20.1911 66.2398 20.2339C65.0714 20.7952 63.7845 21.0652 62.489 21.0208L59.3769 20.9234C59.325 20.9207 59.2739 20.9099 59.2253 20.8914L55.8632 19.6661L54.4717 18.7301L57.91 18.4143C59.8164 18.2339 61.7392 18.3485 63.6106 18.7543Z" fill="#407BFF"/>
<g opacity="0.6">
<path d="M63.6106 18.7543L66.1389 19.3091C66.2396 19.3307 66.3309 19.3835 66.3999 19.46C66.4689 19.5364 66.512 19.6327 66.5232 19.7351C66.5343 19.8374 66.513 19.9407 66.4621 20.0303C66.4112 20.1198 66.3335 20.1911 66.2398 20.2339C65.0714 20.7952 63.7845 21.0652 62.489 21.0208L59.3769 20.9234C59.325 20.9207 59.2739 20.9099 59.2253 20.8914L55.8632 19.6661L54.4717 18.7301L57.91 18.4143C59.8164 18.2339 61.7392 18.3485 63.6106 18.7543Z" fill="white"/>
</g>
<path d="M53.4846 24.054L57.9651 23.588L57.8216 22.1816C57.7587 21.5894 57.4639 21.046 57.0017 20.6704C56.5394 20.2948 55.9473 20.1174 55.3547 20.177C55.0598 20.2058 54.7735 20.2927 54.5123 20.4327C54.2512 20.5727 54.0203 20.763 53.8331 20.9927C53.6459 21.2224 53.506 21.4869 53.4216 21.771C53.3371 22.055 53.3098 22.353 53.3411 22.6476L53.4846 24.054Z" fill="#407BFF"/>
<path opacity="0.2" d="M53.4846 24.054L57.9651 23.588L57.8216 22.1816C57.7587 21.5894 57.4639 21.046 57.0017 20.6704C56.5394 20.2948 55.9473 20.1174 55.3547 20.177C55.0598 20.2058 54.7735 20.2927 54.5123 20.4327C54.2512 20.5727 54.0203 20.763 53.8331 20.9927C53.6459 21.2224 53.506 21.4869 53.4216 21.771C53.3371 22.055 53.3098 22.353 53.3411 22.6476L53.4846 24.054Z" fill="white"/>
</svg>
