<svg width="43" height="50" viewBox="0 0 43 50" fill="none" xmlns="http://www.w3.org/2000/svg">
<path d="M26.835 47.8828L30.5884 15.9446C30.6006 15.8324 30.5828 15.7189 30.5368 15.6158C30.4907 15.5127 30.4182 15.4237 30.3264 15.3579C30.2347 15.2921 30.1271 15.2519 30.0147 15.2413C29.9023 15.2308 29.7891 15.2502 29.6868 15.2978L0.374954 28.665C0.27309 28.7098 0.184958 28.7808 0.119606 28.8708C0.0542529 28.9609 0.014029 29.0667 0.00305718 29.1774C-0.00791469 29.2881 0.0107652 29.3998 0.0571743 29.5009C0.103583 29.602 0.176053 29.6889 0.267153 29.7528L25.7472 48.3238C25.8356 48.4125 25.9483 48.4731 26.0711 48.498C26.1939 48.523 26.3212 48.5112 26.4373 48.4641C26.5534 48.4171 26.6531 48.3368 26.7238 48.2334C26.7945 48.13 26.8332 48.0081 26.835 47.8828Z" fill="#407BFF"/>
<path opacity="0.3" d="M26.835 47.8828L30.5884 15.9446C30.6006 15.8324 30.5828 15.7189 30.5368 15.6158C30.4907 15.5127 30.4182 15.4237 30.3264 15.3579C30.2347 15.2921 30.1271 15.2519 30.0147 15.2413C29.9023 15.2308 29.7891 15.2502 29.6868 15.2978L0.374954 28.665C0.27309 28.7098 0.184958 28.7808 0.119606 28.8708C0.0542529 28.9609 0.014029 29.0667 0.00305718 29.1774C-0.00791469 29.2881 0.0107652 29.3998 0.0571743 29.5009C0.103583 29.602 0.176053 29.6889 0.267153 29.7528L25.7472 48.3238C25.8356 48.4125 25.9483 48.4731 26.0711 48.498C26.1939 48.523 26.3212 48.5112 26.4373 48.4641C26.5534 48.4171 26.6531 48.3368 26.7238 48.2334C26.7945 48.13 26.8332 48.0081 26.835 47.8828Z" fill="black"/>
<path d="M16.6426 46.844L19.122 44.7566L21.3466 46.3736L20.1216 49.3724C18.6728 49.0237 17.4216 48.1143 16.6426 46.844Z" fill="#263238"/>
<path opacity="0.2" d="M21.3468 46.3736C21.3468 46.3736 21.1606 46.8244 21.0626 47.0792C20.0647 46.7173 19.1886 46.0823 18.5342 45.2466L19.1222 44.7566L21.3468 46.3736Z" fill="white"/>
<path opacity="0.4" d="M20.7489 47.8338L20.5235 48.3924C19.2986 47.9749 18.2291 47.1958 17.4561 46.158L17.9167 45.766C18.7175 46.6327 19.6795 47.335 20.7489 47.8338Z" fill="white"/>
<path d="M18.0146 43.6688C18.5353 44.5231 19.2199 45.266 20.0289 45.8547C20.8379 46.4434 21.7553 46.8662 22.7284 47.0988L36.4484 28.224C37.2202 27.1699 37.7753 25.9732 38.0814 24.7031C38.3876 23.4331 38.4388 22.1149 38.2321 20.825C36.9441 21.0178 35.707 21.4634 34.5919 22.1362C33.4768 22.8089 32.5058 23.6955 31.7346 24.745L18.0146 43.6688Z" fill="#407BFF"/>
<path d="M36.4682 28.224L23.5126 46.0208C21.598 45.4448 19.9359 44.2354 18.7988 42.5908C20.1904 40.6308 31.7544 24.794 31.7544 24.794C32.5256 23.7446 33.4966 22.858 34.6117 22.1853C35.7268 21.5125 36.9639 21.0669 38.2518 20.874C38.4519 22.1563 38.3973 23.4653 38.0913 24.7265C37.7853 25.9876 37.2337 27.1761 36.4682 28.224Z" fill="#407BFF"/>
<path opacity="0.4" d="M36.4682 28.224L23.5126 46.0208C21.598 45.4448 19.9359 44.2354 18.7988 42.5908C20.1904 40.6308 31.7544 24.794 31.7544 24.794C32.5256 23.7446 33.4966 22.858 34.6117 22.1853C35.7268 21.5125 36.9639 21.0669 38.2518 20.874C38.4519 22.1563 38.3973 23.4653 38.0913 24.7265C37.7853 25.9876 37.2337 27.1761 36.4682 28.224Z" fill="white"/>
<path d="M36.4686 28.224L26.7372 41.5912C24.8781 40.9075 23.2459 39.7199 22.0234 38.1612L31.7352 24.794C32.5064 23.7446 33.4774 22.858 34.5925 22.1853C35.7076 21.5125 36.9447 21.0669 38.2326 20.874C38.6423 23.461 38.0078 26.1048 36.4686 28.224Z" fill="#407BFF"/>
<path opacity="0.6" d="M36.4686 28.224L26.7372 41.5912C24.8781 40.9075 23.2459 39.7199 22.0234 38.1612L31.7352 24.794C32.5064 23.7446 33.4774 22.858 34.5925 22.1853C35.7076 21.5125 36.9447 21.0669 38.2326 20.874C38.6423 23.461 38.0078 26.1048 36.4686 28.224Z" fill="white"/>
<path d="M36.468 28.224L31.372 35.2212C29.5111 34.5408 27.8781 33.3525 26.6582 31.7912L31.7542 24.794C32.5254 23.7446 33.4964 22.858 34.6115 22.1853C35.7266 21.5125 36.9636 21.0669 38.2516 20.874C38.4517 22.1563 38.3971 23.4653 38.0911 24.7265C37.785 25.9876 37.2335 27.1761 36.468 28.224Z" fill="#407BFF"/>
<path opacity="0.8" d="M36.468 28.224L31.372 35.2212C29.5111 34.5408 27.8781 33.3525 26.6582 31.7912L31.7542 24.794C32.5254 23.7446 33.4964 22.858 34.6115 22.1853C35.7266 21.5125 36.9636 21.0669 38.2516 20.874C38.4517 22.1563 38.3971 23.4653 38.0911 24.7265C37.785 25.9876 37.2335 27.1761 36.468 28.224Z" fill="white"/>
<path d="M36.4688 28.224L35.871 29.0472C34.0095 28.3631 32.3766 27.1716 31.1572 25.6074L31.755 24.794C32.5262 23.7446 33.4972 22.858 34.6123 22.1853C35.7274 21.5125 36.9645 21.0669 38.2524 20.874C38.4525 22.1563 38.3979 23.4653 38.0919 24.7265C37.7859 25.9876 37.2343 27.1761 36.4688 28.224Z" fill="#407BFF"/>
<path opacity="0.4" d="M36.4688 28.224L35.871 29.0472C34.0095 28.3631 32.3766 27.1716 31.1572 25.6074L31.755 24.794C32.5262 23.7446 33.4972 22.858 34.6123 22.1853C35.7274 21.5125 36.9645 21.0669 38.2524 20.874C38.4525 22.1563 38.3979 23.4653 38.0919 24.7265C37.7859 25.9876 37.2343 27.1761 36.4688 28.224Z" fill="white"/>
<path d="M1.48242 35.7994L3.95203 33.712L6.18642 35.3388L4.95162 38.2788C3.51331 37.9426 2.26626 37.0514 1.48242 35.7994Z" fill="#263238"/>
<path opacity="0.2" d="M6.18663 35.3584L5.90243 36.0542C4.90178 35.6975 4.02432 35.0616 3.37402 34.2216L3.95223 33.7316L6.18663 35.3584Z" fill="white"/>
<path opacity="0.4" d="M5.5887 36.7892L5.3633 37.3478C4.13669 36.9337 3.06627 36.1539 2.2959 35.1134L2.7565 34.7214C3.55731 35.5881 4.5193 36.2904 5.5887 36.7892Z" fill="white"/>
<path d="M2.84473 32.6242C3.89849 34.3498 5.59375 35.5869 7.55853 36.064L21.2785 17.1892C22.0501 16.1331 22.605 14.9347 22.9111 13.6631C23.2172 12.3915 23.2686 11.0719 23.0621 9.7804C20.4623 10.1741 18.1252 11.5841 16.5647 13.7004L2.84473 32.6242Z" fill="#407BFF"/>
<path d="M21.3081 17.1892C21.3081 17.1892 9.74407 33.0554 8.35247 34.9762C6.43785 34.4002 4.77575 33.1908 3.63867 31.5462L16.5943 13.7984C18.1548 11.6821 20.4918 10.2721 23.0917 9.87842C23.4817 12.4551 22.8409 15.0817 21.3081 17.1892Z" fill="#407BFF"/>
<path opacity="0.4" d="M21.3081 17.1892C21.3081 17.1892 9.74407 33.0554 8.35247 34.9762C6.43785 34.4002 4.77575 33.1908 3.63867 31.5462L16.5943 13.7984C18.1548 11.6821 20.4918 10.2721 23.0917 9.87842C23.4817 12.4551 22.8409 15.0817 21.3081 17.1892Z" fill="white"/>
<path d="M21.3075 17.1892L11.5761 30.5466C9.71373 29.869 8.08003 28.6802 6.8623 27.1166L16.5937 13.7984C18.1542 11.6821 20.4913 10.2721 23.0911 9.87842C23.4812 12.4551 22.8404 15.0817 21.3075 17.1892Z" fill="#407BFF"/>
<path opacity="0.6" d="M21.3075 17.1892L11.5761 30.5466C9.71373 29.869 8.08003 28.6802 6.8623 27.1166L16.5937 13.7984C18.1542 11.6821 20.4913 10.2721 23.0911 9.87842C23.4812 12.4551 22.8404 15.0817 21.3075 17.1892Z" fill="white"/>
<path d="M21.3078 17.1891L16.2119 24.1863C14.349 23.5046 12.7156 22.3126 11.498 20.7465L16.5941 13.7493C18.1546 11.633 20.4916 10.223 23.0914 9.82935C23.4949 12.422 22.8535 15.0688 21.3078 17.1891Z" fill="#407BFF"/>
<path opacity="0.8" d="M21.3078 17.1891L16.2119 24.1863C14.349 23.5046 12.7156 22.3126 11.498 20.7465L16.5941 13.7493C18.1546 11.633 20.4916 10.223 23.0914 9.82935C23.4949 12.422 22.8535 15.0688 21.3078 17.1891Z" fill="white"/>
<path d="M21.3077 17.1891L20.7099 18.0026C18.8508 17.3188 17.2186 16.1312 15.9961 14.5725L16.5939 13.7493C18.1544 11.633 20.4915 10.223 23.0913 9.82935C23.4947 12.422 22.8533 15.0688 21.3077 17.1891Z" fill="#407BFF"/>
<path opacity="0.4" d="M21.3077 17.1891L20.7099 18.0026C18.8508 17.3188 17.2186 16.1312 15.9961 14.5725L16.5939 13.7493C18.1544 11.633 20.4915 10.223 23.0913 9.82935C23.4947 12.422 22.8533 15.0688 21.3077 17.1891Z" fill="white"/>
<path d="M6.94141 42.0028L10.93 38.6316L14.5266 41.258L12.5666 46.0894C11.4054 45.814 10.3103 45.311 9.34471 44.6095C8.37915 43.908 7.56229 43.022 6.94141 42.0028Z" fill="#263238"/>
<path opacity="0.2" d="M14.5257 41.2384L14.0651 42.3654C12.4544 41.7926 11.0403 40.7728 9.98828 39.4254L10.9683 38.6316L14.5257 41.2384Z" fill="white"/>
<path opacity="0.4" d="M13.5654 43.6002L13.193 44.5018C11.2356 43.822 9.52818 42.5688 8.29297 40.9052L9.03776 40.2682C10.3172 41.6612 11.8549 42.7928 13.5654 43.6002Z" fill="white"/>
<path d="M9.13574 36.8774C9.97373 38.2588 11.0773 39.4603 12.3827 40.4124C13.688 41.3645 15.1692 42.0483 16.7405 42.4242L38.9375 11.956C40.1801 10.2503 41.0741 8.31641 41.5685 6.26487C42.0629 4.21333 42.1479 2.08443 41.8187 0C39.7335 0.324964 37.733 1.05841 35.9319 2.15825C34.1308 3.25809 32.5645 4.70269 31.3229 6.4092L9.13574 36.8774Z" fill="#407BFF"/>
<path d="M38.938 11.956L18.015 40.6798C14.9262 39.7379 12.2441 37.7841 10.4004 35.133C12.6642 32.0362 31.3234 6.4092 31.3234 6.4092C32.565 4.70269 34.1312 3.25809 35.9323 2.15825C37.7334 1.05841 39.734 0.324964 41.8192 0C42.1484 2.08443 42.0634 4.21333 41.569 6.26487C41.0746 8.31641 40.1805 10.2503 38.938 11.956Z" fill="#407BFF"/>
<path opacity="0.4" d="M38.938 11.956L18.015 40.6798C14.9262 39.7379 12.2441 37.7841 10.4004 35.133C12.6642 32.0362 31.3234 6.4092 31.3234 6.4092C32.565 4.70269 34.1312 3.25809 35.9323 2.15825C37.7334 1.05841 39.734 0.324964 41.8192 0C42.1484 2.08443 42.0634 4.21333 41.569 6.26487C41.0746 8.31641 40.1805 10.2503 38.938 11.956Z" fill="white"/>
<path d="M38.9382 11.956L23.2582 33.516C20.2492 32.4193 17.6102 30.4969 15.6436 27.9692L31.3236 6.4092C32.5651 4.70269 34.1314 3.25809 35.9325 2.15825C37.7336 1.05841 39.7341 0.324964 41.8193 0C42.1485 2.08443 42.0635 4.21333 41.5691 6.26487C41.0748 8.31641 40.1807 10.2503 38.9382 11.956Z" fill="#407BFF"/>
<path opacity="0.6" d="M38.9382 11.956L23.2582 33.516C20.2492 32.4193 17.6102 30.4969 15.6436 27.9692L31.3236 6.4092C32.5651 4.70269 34.1314 3.25809 35.9325 2.15825C37.7336 1.05841 39.7341 0.324964 41.8193 0C42.1485 2.08443 42.0635 4.21333 41.5691 6.26487C41.0748 8.31641 40.1807 10.2503 38.9382 11.956Z" fill="white"/>
<path d="M38.9384 11.956L30.7554 23.2456C27.7345 22.1607 25.0814 20.2448 23.1016 17.7184L31.3238 6.41897C32.5653 4.71246 34.1316 3.26785 35.9327 2.16801C37.7338 1.06816 39.7344 0.33473 41.8196 0.00976562C42.1474 2.09265 42.0617 4.21973 41.5674 6.26949C41.073 8.31925 40.1797 10.2515 38.9384 11.956Z" fill="#407BFF"/>
<path opacity="0.8" d="M38.9384 11.956L30.7554 23.2456C27.7345 22.1607 25.0814 20.2448 23.1016 17.7184L31.3238 6.41897C32.5653 4.71246 34.1316 3.26785 35.9327 2.16801C37.7338 1.06816 39.7344 0.33473 41.8196 0.00976562C42.1474 2.09265 42.0617 4.21973 41.5674 6.26949C41.073 8.31925 40.1797 10.2515 38.9384 11.956Z" fill="white"/>
<path d="M38.9384 11.956L37.9584 13.2692C34.9546 12.1677 32.3175 10.2502 30.3438 7.7322L31.3237 6.4092C32.5653 4.70269 34.1316 3.25809 35.9327 2.15825C37.7338 1.05841 39.7343 0.324964 41.8195 0C42.1487 2.08443 42.0637 4.21333 41.5693 6.26487C41.0749 8.31641 40.1809 10.2503 38.9384 11.956Z" fill="#407BFF"/>
<path opacity="0.1" d="M38.9384 11.956L37.9584 13.2692C34.9546 12.1677 32.3175 10.2502 30.3438 7.7322L31.3237 6.4092C32.5653 4.70269 34.1316 3.25809 35.9327 2.15825C37.7338 1.05841 39.7343 0.324964 41.8195 0C42.1487 2.08443 42.0637 4.21333 41.5693 6.26487C41.0749 8.31641 40.1809 10.2503 38.9384 11.956Z" fill="white"/>
<path d="M28.4712 13.6612C28.1508 14.0995 27.9676 14.6229 27.9448 15.1653C27.922 15.7076 28.0606 16.2446 28.343 16.7082C28.6254 17.1718 29.039 17.5412 29.5314 17.7697C30.0238 17.9982 30.573 18.0755 31.1094 17.9918C31.6457 17.9082 32.1452 17.6673 32.5447 17.2996C32.9441 16.932 33.2255 16.4541 33.3533 15.9265C33.4811 15.3989 33.4495 14.8453 33.2625 14.3356C33.0756 13.826 32.7417 13.3832 32.303 13.0634C31.7155 12.635 30.9819 12.4573 30.2634 12.5694C29.5449 12.6815 28.9004 13.0742 28.4712 13.6612Z" fill="#407BFF"/>
<path d="M29.0793 17.493C29.6371 17.8994 30.328 18.0797 31.0132 17.9979C31.6985 17.9161 32.3274 17.5782 32.7739 17.052C32.7416 17.113 32.7056 17.1719 32.6661 17.2284C32.2373 17.8171 31.5921 18.2114 30.8726 18.3244C30.1531 18.4374 29.4181 18.26 28.8294 17.8311C28.2407 17.4023 27.8465 16.7571 27.7335 16.0376C27.6204 15.3181 27.7979 14.5831 28.2267 13.9944L28.3639 13.8376C27.9992 14.4246 27.8702 15.1278 28.0029 15.806C28.1356 16.4842 28.5202 17.0869 29.0793 17.493Z" fill="#407BFF"/>
<path opacity="0.3" d="M29.0793 17.493C29.6371 17.8994 30.328 18.0797 31.0132 17.9979C31.6985 17.9161 32.3274 17.5782 32.7739 17.052C32.7416 17.113 32.7056 17.1719 32.6661 17.2284C32.2373 17.8171 31.5921 18.2114 30.8726 18.3244C30.1531 18.4374 29.4181 18.26 28.8294 17.8311C28.2407 17.4023 27.8465 16.7571 27.7335 16.0376C27.6204 15.3181 27.7979 14.5831 28.2267 13.9944L28.3639 13.8376C27.9992 14.4246 27.8702 15.1278 28.0029 15.806C28.1356 16.4842 28.5202 17.0869 29.0793 17.493Z" fill="black"/>
<path d="M29.128 14.1315C28.8942 14.4434 28.7588 14.8178 28.7389 15.207C28.719 15.5962 28.8156 15.9825 29.0163 16.3166C29.217 16.6506 29.5128 16.9172 29.8658 17.0824C30.2188 17.2475 30.613 17.3037 30.9981 17.2437C31.3831 17.1837 31.7416 17.0103 32.0276 16.7456C32.3136 16.4809 32.5142 16.1369 32.6038 15.7576C32.6934 15.3784 32.6679 14.981 32.5306 14.6163C32.3932 14.2516 32.1503 13.9361 31.8328 13.7101C31.4161 13.4136 30.9 13.2917 30.3946 13.3704C29.8893 13.4491 29.4347 13.7223 29.128 14.1315Z" fill="white"/>
<path d="M29.6377 16.8952L31.1959 13.4064C31.4086 13.4652 31.6104 13.5578 31.7937 13.6808L30.2355 17.1598C30.0218 17.1087 29.8192 17.0191 29.6377 16.8952Z" fill="#407BFF"/>
<path d="M29.1084 16.3856L30.4706 13.3574C30.5913 13.3475 30.7125 13.3475 30.8332 13.3574L29.3534 16.6698C29.2584 16.5875 29.1758 16.4917 29.1084 16.3856Z" fill="#407BFF"/>
<g opacity="0.7">
<path d="M29.6377 16.8952L31.1959 13.4064C31.4086 13.4652 31.6104 13.5578 31.7937 13.6808L30.2355 17.1598C30.0218 17.1087 29.8192 17.0191 29.6377 16.8952Z" fill="white"/>
<path d="M29.1084 16.3856L30.4706 13.3574C30.5913 13.3475 30.7125 13.3475 30.8332 13.3574L29.3534 16.6698C29.2584 16.5875 29.1758 16.4917 29.1084 16.3856Z" fill="white"/>
</g>
</svg>
