<svg width="74" height="179" viewBox="0 0 74 179" fill="none" xmlns="http://www.w3.org/2000/svg">
<path d="M16.8029 32.5283L7.98242 37.4963L9.95907 41.0058L18.7796 36.0377L16.8029 32.5283Z" fill="#E0E0E0"/>
<path d="M38.2298 83.1577H31.7422V94.2611H38.2298V83.1577Z" fill="#E0E0E0"/>
<path d="M40.4156 84.5494L35.7018 87.4111C35.1551 87.7438 34.5461 87.9615 33.9123 88.0508C33.2785 88.14 32.6331 88.099 32.0157 87.9302C31.3983 87.7614 30.8218 87.4684 30.3216 87.0691C29.8213 86.6697 29.4079 86.1725 29.1064 85.6079L6.23325 42.6447C5.66609 41.5839 5.5278 40.3458 5.84693 39.186C6.16605 38.0262 6.91824 37.0332 7.94825 36.4119C8.97364 35.7875 10.1993 35.5797 11.3732 35.8313C12.547 36.0828 13.5799 36.7746 14.2594 37.7643L41.8464 77.8659C42.2103 78.3926 42.4626 78.9882 42.5878 79.616C42.713 80.2438 42.7085 80.8906 42.5744 81.5166C42.4404 82.1427 42.1798 82.7346 41.8085 83.2562C41.4373 83.7778 40.9633 84.2179 40.4156 84.5494Z" fill="#EBEBEB"/>
<path d="M15.2298 38.6168L13.5246 34.3832C13.423 34.1275 13.374 33.8541 13.3804 33.5791C13.3869 33.3041 13.4487 33.0332 13.5621 32.7826C13.6755 32.532 13.8382 32.3068 14.0405 32.1204C14.2429 31.9341 14.4807 31.7904 14.7398 31.698L62.7598 14.8714C63.2555 14.6974 63.7994 14.7215 64.2778 14.9388C64.7562 15.1561 65.1322 15.5497 65.3274 16.0376C65.5258 16.5246 65.5274 17.0696 65.3318 17.5578C65.1362 18.0459 64.7586 18.439 64.2788 18.6542L17.9934 39.7144C17.7411 39.8329 17.4673 39.8985 17.1888 39.907C16.9102 39.9156 16.6329 39.8669 16.3739 39.764C16.1149 39.6612 15.8797 39.5063 15.6829 39.309C15.4861 39.1116 15.3319 38.876 15.2298 38.6168Z" fill="#EBEBEB"/>
<path d="M65.3961 17.7429C64.4802 17.507 63.6722 16.9656 63.1056 16.2083C62.5389 15.4511 62.2476 14.5231 62.2797 13.5779L62.4953 7.69787L63.0441 5.73787L66.3271 0.700658C66.4459 0.519136 66.6015 0.364603 66.7838 0.247055C66.9661 0.129507 67.1711 0.0515716 67.3854 0.0183096C67.5998 -0.0149525 67.8187 -0.00279747 68.0281 0.0539739C68.2375 0.110745 68.4326 0.210877 68.6007 0.347872L66.0625 7.08047L65.7195 8.37406L65.5529 13.6857C65.5468 13.8841 65.6085 14.0786 65.7279 14.2372C65.8473 14.3958 66.0172 14.5089 66.2095 14.5579C66.3998 14.6053 66.6006 14.5866 66.7787 14.5046C66.9569 14.4227 67.1018 14.2824 67.1895 14.1071L69.6101 9.38346L69.9433 8.08007L70.9233 0.965262C71.136 0.927625 71.3543 0.935194 71.5638 0.987468C71.7734 1.03974 71.9696 1.13555 72.1397 1.26867C72.3098 1.40179 72.45 1.56923 72.5511 1.76009C72.6522 1.95096 72.712 2.16097 72.7265 2.37646L73.1283 8.72686L72.5795 10.6869L70.0707 15.5869C69.6486 16.4205 68.9572 17.087 68.1087 17.4784C67.2601 17.8698 66.3043 17.963 65.3961 17.7429Z" fill="#E6E6E6"/>
<g opacity="0.7">
<path d="M35.7506 75.9939C34.9707 75.5503 34.0667 75.3751 33.1775 75.495C32.2884 75.615 31.4632 76.0236 30.8287 76.6581C30.1943 77.2925 29.7857 78.1177 29.6657 79.0069C29.5457 79.8961 29.721 80.8 30.1646 81.5799L35.7506 75.9939Z" fill="white"/>
<path d="M31.7129 83.1577C32.4923 83.59 33.3911 83.757 34.2737 83.6334C35.1563 83.5099 35.9748 83.1026 36.6055 82.473C37.2363 81.8433 37.645 81.0256 37.7701 80.1432C37.8952 79.2608 37.7298 78.3617 37.2989 77.5815L31.7129 83.1577Z" fill="white"/>
</g>
<g opacity="0.7">
<path d="M20.4237 32.4329C20.1019 32.1633 19.7179 31.978 19.3065 31.8939C18.9845 31.8256 18.652 31.8223 18.3287 31.8843C18.0054 31.9462 17.6977 32.0722 17.4238 32.2549C17.1499 32.4375 16.9153 32.673 16.7337 32.9476C16.5521 33.2222 16.4273 33.5304 16.3665 33.8539C16.2834 34.2652 16.3104 34.6912 16.4449 35.0887L20.4237 32.4329Z" fill="white"/>
<path d="M17.2383 36.1961C17.5601 36.4657 17.9441 36.651 18.3555 36.7351C18.6742 36.7989 19.0025 36.7987 19.3211 36.7344C19.6398 36.6702 19.9425 36.5431 20.2116 36.3607C20.4806 36.1783 20.7107 35.9441 20.8884 35.6719C21.0661 35.3997 21.1878 35.0948 21.2465 34.7751C21.3296 34.3638 21.3025 33.9378 21.1681 33.5403L17.2383 36.1961Z" fill="white"/>
</g>
<path d="M41.8468 154.061H28.1562V161.597H41.8468V154.061Z" fill="#E0E0E0"/>
<path d="M70.0014 178.786H0L1.617 171.005C2.32022 167.611 4.17202 164.562 6.86037 162.374C9.54871 160.185 12.9093 158.99 16.3758 158.99H53.6158C57.0823 158.99 60.4429 160.185 63.1312 162.374C65.8196 164.562 67.6714 167.611 68.3746 171.005L70.0014 178.786Z" fill="#F0F0F0"/>
<path d="M38.083 155.697H30.6644C24.6864 155.697 19.8844 151.777 20.2862 147.044L24.0004 97.6618C24.3238 93.34 28.9004 89.9688 34.3688 89.9688C39.8764 89.9688 44.4236 93.34 44.747 97.6618L48.4514 147.044C48.8042 151.738 44.061 155.697 38.083 155.697Z" fill="#EBEBEB"/>
<g opacity="0.7">
<path d="M37.1614 138.753C36.0157 138.112 34.692 137.863 33.3915 138.043C32.0911 138.223 30.885 138.823 29.9567 139.751C29.0283 140.679 28.4285 141.886 28.2484 143.186C28.0683 144.486 28.3177 145.81 28.9588 146.956L37.1614 138.753Z" fill="white"/>
<path d="M31.2812 149.279C32.427 149.92 33.7507 150.169 35.0511 149.989C36.3516 149.809 37.5576 149.209 38.486 148.281C39.4143 147.352 40.0141 146.146 40.1942 144.846C40.3744 143.545 40.1249 142.222 39.4839 141.076L31.2812 149.279Z" fill="white"/>
</g>
</svg>
