<svg width="53" height="63" viewBox="0 0 53 63" fill="none" xmlns="http://www.w3.org/2000/svg">
<path d="M17.8801 1.23781L14.5331 1.80196C14.0489 1.88242 13.6165 2.15172 13.3308 2.55073C13.0451 2.94973 12.9294 3.44581 13.0091 3.93005C13.0654 4.26299 13.2126 4.57391 13.4344 4.82849C13.6562 5.08307 13.9441 5.27142 14.2662 5.37275L19.1952 34.8377C19.2892 35.3947 19.6 35.8918 20.0595 36.2203C20.5191 36.5488 21.0901 36.6819 21.6475 36.5905L22.4677 36.445C22.7441 36.3997 23.0088 36.3002 23.2467 36.1523C23.4845 36.0044 23.6908 35.8109 23.8537 35.5831C24.0165 35.3552 24.1328 35.0974 24.1958 34.8245C24.2587 34.5516 24.2672 34.2689 24.2206 33.9927L19.289 4.53728C19.5605 4.33377 19.7713 4.05991 19.8985 3.74531C20.0257 3.43071 20.0645 3.08733 20.0107 2.75227C19.9257 2.27058 19.6545 1.8417 19.2559 1.55831C18.8572 1.27493 18.363 1.1598 17.8801 1.23781Z" fill="#407BFF"/>
<path opacity="0.6" d="M17.8801 1.23781L14.5331 1.80196C14.0489 1.88242 13.6165 2.15172 13.3308 2.55073C13.0451 2.94973 12.9294 3.44581 13.0091 3.93005C13.0654 4.26299 13.2126 4.57391 13.4344 4.82849C13.6562 5.08307 13.9441 5.27142 14.2662 5.37275L19.1952 34.8377C19.2892 35.3947 19.6 35.8918 20.0595 36.2203C20.5191 36.5488 21.0901 36.6819 21.6475 36.5905L22.4677 36.445C22.7441 36.3997 23.0088 36.3002 23.2467 36.1523C23.4845 36.0044 23.6908 35.8109 23.8537 35.5831C24.0165 35.3552 24.1328 35.0974 24.1958 34.8245C24.2587 34.5516 24.2672 34.2689 24.2206 33.9927L19.289 4.53728C19.5605 4.33377 19.7713 4.05991 19.8985 3.74531C20.0257 3.43071 20.0645 3.08733 20.0107 2.75227C19.9257 2.27058 19.6545 1.8417 19.2559 1.55831C18.8572 1.27493 18.363 1.1598 17.8801 1.23781Z" fill="white"/>
<path d="M13.4721 2.39033C14.4186 2.62048 15.4065 2.6208 16.3532 2.39126C17.3227 2.30106 18.2557 1.97655 19.072 1.4457C18.7093 1.24414 18.2892 1.1709 17.8797 1.23784L14.5327 1.80199C14.1224 1.87128 13.7481 2.0789 13.4721 2.39033Z" fill="#407BFF"/>
<path d="M19.1037 18.8234C18.2336 18.9656 17.5008 18.8606 17.4412 18.591L20.1414 34.7157C20.1662 34.8684 20.221 35.0147 20.3025 35.1462C20.384 35.2777 20.4906 35.3918 20.6163 35.4821C20.742 35.5723 20.8842 35.6368 21.0349 35.672C21.1856 35.7071 21.3417 35.7122 21.4943 35.6869L22.324 35.544C22.4778 35.5195 22.6253 35.4647 22.7578 35.3827C22.8903 35.3007 23.0052 35.1932 23.0958 35.0665C23.1864 34.9397 23.2509 34.7962 23.2856 34.6443C23.3203 34.4924 23.3244 34.3351 23.2978 34.1816L20.5976 18.0569C20.6332 18.3404 19.9643 18.6786 19.1037 18.8234Z" fill="#407BFF"/>
<path d="M20.6088 18.0501C20.6564 18.3266 19.9755 18.6717 19.1029 18.8235C18.2303 18.9752 17.4786 18.8651 17.4335 18.5791C17.3884 18.293 18.0573 17.9548 18.9299 17.8031C19.8025 17.6514 20.5517 17.771 20.6088 18.0501Z" fill="#407BFF"/>
<path opacity="0.3" d="M20.6088 18.0501C20.6564 18.3266 19.9755 18.6717 19.1029 18.8235C18.2303 18.9752 17.4786 18.8651 17.4335 18.5791C17.3884 18.293 18.0573 17.9548 18.9299 17.8031C19.8025 17.6514 20.5517 17.771 20.6088 18.0501Z" fill="black"/>
<g opacity="0.8">
<path d="M15.2251 5.46727L20.1103 34.7175C20.1309 34.8414 20.1999 34.9521 20.3021 35.0251C20.4043 35.0982 20.5313 35.1277 20.6552 35.107C20.7791 35.0864 20.8898 35.0174 20.9628 34.9152C21.0359 34.813 21.0653 34.686 21.0447 34.5621L16.1596 5.31184C16.139 5.18792 16.07 5.07727 15.9678 5.00422C15.8656 4.93117 15.7386 4.90171 15.6146 4.92232C15.4907 4.94293 15.3801 5.01192 15.307 5.11412C15.234 5.21632 15.2045 5.34335 15.2251 5.46727Z" fill="white"/>
</g>
<path d="M41.1151 50.796C41.3667 48.5685 40.9505 46.3164 39.9195 44.3258C38.8885 42.3352 37.2891 40.6959 35.3246 39.6162L38.6219 27.3103C39.1431 27.3247 39.654 27.1633 40.0723 26.8521C40.4906 26.5409 40.7921 26.098 40.9282 25.5947C41.0876 24.9997 41.0041 24.3657 40.6961 23.8323C40.3881 23.2988 39.8808 22.9096 39.2858 22.7501L35.1681 21.6468C34.5731 21.4874 33.9391 21.5708 33.4057 21.8788C32.8722 22.1868 32.4829 22.6941 32.3235 23.2891C32.1879 23.793 32.2266 24.3279 32.4335 24.807C32.6404 25.2861 33.0032 25.6811 33.4629 25.9279L30.1656 38.2338C28.0032 38.1818 25.8715 38.7532 24.0249 39.8797C22.1784 41.0062 20.6951 42.6403 19.752 44.587C18.809 46.5336 18.446 48.7105 18.7065 50.8578C18.967 53.0051 19.8399 55.032 21.221 56.6967C21.8073 57.3998 22.5982 57.9026 23.4837 58.135L31.1607 60.192C32.0367 60.4291 32.9644 60.3907 33.8178 60.0822C35.7747 59.3618 37.4932 58.1122 38.7816 56.4726C40.0701 54.833 40.8779 52.8678 41.1151 50.796Z" fill="#407BFF"/>
<path d="M41.1151 50.796C41.3667 48.5685 40.9505 46.3164 39.9195 44.3258C38.8885 42.3352 37.2891 40.6959 35.3246 39.6162L38.6219 27.3103C39.1431 27.3247 39.654 27.1633 40.0723 26.8521C40.4906 26.5409 40.7921 26.098 40.9282 25.5947C41.0876 24.9997 41.0041 24.3657 40.6961 23.8323C40.3881 23.2988 39.8808 22.9096 39.2858 22.7501L35.1681 21.6468C34.5731 21.4874 33.9391 21.5708 33.4057 21.8788C32.8722 22.1868 32.4829 22.6941 32.3235 23.2891C32.1879 23.793 32.2266 24.3279 32.4335 24.807C32.6404 25.2861 33.0032 25.6811 33.4629 25.9279L30.1656 38.2338C28.0032 38.1818 25.8715 38.7532 24.0249 39.8797C22.1784 41.0062 20.6951 42.6403 19.752 44.587C18.809 46.5336 18.446 48.7105 18.7065 50.8578C18.967 53.0051 19.8399 55.032 21.221 56.6967C21.8073 57.3998 22.5982 57.9026 23.4837 58.135L31.1607 60.192C32.0367 60.4291 32.9644 60.3907 33.8178 60.0822C35.7747 59.3618 37.4932 58.1122 38.7816 56.4726C40.0701 54.833 40.8779 52.8678 41.1151 50.796Z" fill="#407BFF"/>
<path opacity="0.7" d="M41.1151 50.796C41.3667 48.5685 40.9505 46.3164 39.9195 44.3258C38.8885 42.3352 37.2891 40.6959 35.3246 39.6162L38.6219 27.3103C39.1431 27.3247 39.654 27.1633 40.0723 26.8521C40.4906 26.5409 40.7921 26.098 40.9282 25.5947C41.0876 24.9997 41.0041 24.3657 40.6961 23.8323C40.3881 23.2988 39.8808 22.9096 39.2858 22.7501L35.1681 21.6468C34.5731 21.4874 33.9391 21.5708 33.4057 21.8788C32.8722 22.1868 32.4829 22.6941 32.3235 23.2891C32.1879 23.793 32.2266 24.3279 32.4335 24.807C32.6404 25.2861 33.0032 25.6811 33.4629 25.9279L30.1656 38.2338C28.0032 38.1818 25.8715 38.7532 24.0249 39.8797C22.1784 41.0062 20.6951 42.6403 19.752 44.587C18.809 46.5336 18.446 48.7105 18.7065 50.8578C18.967 53.0051 19.8399 55.032 21.221 56.6967C21.8073 57.3998 22.5982 57.9026 23.4837 58.135L31.1607 60.192C32.0367 60.4291 32.9644 60.3907 33.8178 60.0822C35.7747 59.3618 37.4932 58.1122 38.7816 56.4726C40.0701 54.833 40.8779 52.8678 41.1151 50.796Z" fill="white"/>
<path d="M33.6445 21.8066C35.6677 23.1735 38.0907 23.8228 40.5263 23.6506C40.2186 23.2305 39.7781 22.9266 39.2762 22.788L35.1584 21.6847C34.6546 21.5521 34.1206 21.5951 33.6445 21.8066Z" fill="#407BFF"/>
<path d="M39.9367 50.6526C40.0701 49.3715 39.948 48.0766 39.5777 46.843C39.2992 47.4279 35.4919 46.9454 30.9198 45.7203C26.3477 44.4953 22.7645 42.9873 22.8657 42.3448C21.0388 44.106 19.9462 46.4933 19.8075 49.0271C19.6687 51.5608 20.4941 54.0532 22.1177 56.0034C22.5494 56.5148 23.1272 56.882 23.7735 57.0558L31.4505 59.1128C32.0893 59.2881 32.7668 59.2604 33.3892 59.0337C35.1519 58.3836 36.6984 57.2549 37.855 55.7743C39.0116 54.2938 39.7325 52.5202 39.9367 50.6526Z" fill="#407BFF"/>
<path d="M39.6072 46.7699C39.4398 47.3946 35.5139 46.9007 30.9323 45.6731C26.3507 44.4454 22.7038 42.9102 22.8712 42.2855C23.0386 41.6607 26.9671 42.1452 31.5487 43.3728C36.1302 44.6004 39.7772 46.1357 39.6072 46.7699Z" fill="#407BFF"/>
<path opacity="0.2" d="M39.6072 46.7699C39.4398 47.3946 35.5139 46.9007 30.9323 45.6731C26.3507 44.4454 22.7038 42.9102 22.8712 42.2855C23.0386 41.6607 26.9671 42.1452 31.5487 43.3728C36.1302 44.6004 39.7772 46.1357 39.6072 46.7699Z" fill="black"/>
<path opacity="0.5" d="M21.1416 47.4529C21.1416 47.4529 21.124 55.2807 24.3128 55.6481C27.5015 56.0155 22.9023 52.1656 21.1416 47.4529Z" fill="white"/>
</svg>
