<svg width="105" height="218" viewBox="0 0 105 218" fill="none" xmlns="http://www.w3.org/2000/svg">
<path opacity="0.7" d="M53.9213 12.7038C53.9213 12.7038 53.142 6.40655 48.1977 9.80541L53.9213 12.7038Z" fill="white"/>
<path d="M85.6885 193.949L86.4285 207.213L80.2813 207.674L77.5215 185.5L85.6885 193.949Z" fill="#FFD0A6"/>
<path d="M87.558 206.842C87.525 206.833 87.4948 206.816 87.4703 206.792C87.4459 206.769 87.4281 206.739 87.4187 206.706C87.4104 206.673 87.4119 206.638 87.4231 206.605C87.4344 206.573 87.4548 206.545 87.4819 206.524C87.5738 206.447 89.7657 204.806 90.9078 205.053C91.0182 205.075 91.1231 205.119 91.2162 205.182C91.3094 205.245 91.389 205.326 91.4504 205.42C91.5333 205.526 91.5836 205.653 91.5949 205.787C91.6062 205.92 91.5781 206.054 91.514 206.172C91.2835 206.585 90.4382 206.824 89.6074 206.884C88.9244 206.932 88.2384 206.918 87.558 206.842ZM88.0557 206.564C89.3108 206.634 91.0001 206.491 91.2623 205.987C91.2574 205.928 91.3264 205.814 91.2301 205.606C91.1928 205.549 91.144 205.499 91.0866 205.462C91.0292 205.425 90.9646 205.399 90.8969 205.389C90.7953 205.383 90.6934 205.391 90.5942 205.414C89.6773 205.617 88.8128 206.008 88.0557 206.564Z" fill="#407BFF"/>
<path d="M87.479 206.839C87.4537 206.822 87.4324 206.8 87.4166 206.774C87.4008 206.748 87.3909 206.719 87.3877 206.689C87.3794 206.591 87.3783 204.605 88.1243 203.774C88.2317 203.655 88.364 203.562 88.5117 203.5C88.6595 203.438 88.8191 203.41 88.9792 203.417C89.4227 203.428 89.5793 203.651 89.6162 203.854C89.8321 204.662 88.3842 206.378 87.6255 206.826L87.5571 206.832C87.5323 206.842 87.5052 206.844 87.479 206.839ZM88.9398 203.764C88.7368 203.781 88.5479 203.875 88.4111 204.025C87.9683 204.714 87.7356 205.516 87.7412 206.334C88.5168 205.738 89.4468 204.41 89.3558 203.916C89.3558 203.916 89.3418 203.75 89.0268 203.747L88.9398 203.764Z" fill="#407BFF"/>
<path d="M86.7871 205.874L79.5024 206.491C79.3643 206.508 79.2359 206.571 79.1387 206.67C79.0415 206.77 78.9814 206.9 78.9684 207.038L78.2231 213.681C78.1816 213.957 78.2466 214.238 78.4048 214.467C78.5631 214.697 78.8028 214.858 79.0753 214.917L79.2803 214.899C81.9266 214.675 84.2643 214.29 87.5568 214.031C91.4628 213.7 90.5309 214.31 95.0799 214.023C97.8281 213.84 97.9763 210.365 96.7994 210.288C91.4032 209.978 90.6765 208.249 88.4195 206.336C87.9577 205.972 87.3709 205.806 86.7871 205.874Z" fill="#263238"/>
<path d="M55.5215 189L51.2517 207.35L45.1968 206.231L48.0215 187.5L55.5215 189Z" fill="#FFD0A6"/>
<path d="M52.2466 207.846C52.2131 207.838 52.1832 207.82 52.1614 207.793C52.1396 207.766 52.1271 207.733 52.1259 207.699C52.1221 207.664 52.129 207.628 52.1456 207.597C52.1623 207.566 52.188 207.54 52.2193 207.524C52.3365 207.514 54.7829 206.323 55.861 206.743C56.0697 206.831 56.2357 206.997 56.3231 207.206C56.3849 207.324 56.4126 207.457 56.403 207.59C56.3934 207.722 56.3469 207.85 56.2688 207.958C55.9729 208.144 55.6427 208.269 55.2978 208.325C54.9529 208.381 54.6003 208.368 54.2606 208.285C53.5759 208.209 52.9009 208.062 52.2466 207.846ZM52.7729 207.674C53.999 207.983 55.6766 208.165 56.0324 207.722C56.0283 207.673 56.1283 207.576 56.0002 207.341C55.9765 207.277 55.938 207.219 55.888 207.172C55.8379 207.125 55.7775 207.09 55.7117 207.071C55.6192 207.028 55.5206 207 55.4194 206.987C54.5143 207.045 53.6289 207.277 52.812 207.67L52.7729 207.674Z" fill="#407BFF"/>
<path d="M52.157 207.834C52.1432 207.809 52.1348 207.781 52.1324 207.753C52.13 207.724 52.1335 207.695 52.1429 207.668C52.1355 207.58 52.5243 205.669 53.4381 204.962C53.5639 204.865 53.7099 204.797 53.8653 204.763C54.0207 204.73 54.1816 204.731 54.3363 204.768C54.767 204.859 54.8772 205.115 54.875 205.322C54.9453 206.152 53.2048 207.549 52.3743 207.845L52.3059 207.851C52.2558 207.863 52.2032 207.857 52.157 207.834ZM54.1642 205.058C54.064 205.045 53.9624 205.052 53.865 205.079C53.7677 205.106 53.6767 205.152 53.5971 205.214C53.0347 205.802 52.6563 206.542 52.5087 207.342C53.3862 206.904 54.5404 205.783 54.5478 205.291C54.5437 205.242 54.5329 205.115 54.2529 205.06L54.1642 205.058Z" fill="#407BFF"/>
<path d="M51.6624 206.755L44.4131 205.933C44.2742 205.918 44.1347 205.954 44.0204 206.035C43.9061 206.115 43.8246 206.234 43.7911 206.369L41.84 212.711C41.7491 212.973 41.7601 213.261 41.8709 213.515C41.9818 213.77 42.1844 213.974 42.4385 214.086L42.6396 214.138C45.2768 214.387 47.5874 214.496 50.9044 214.874C54.7683 215.324 53.7393 215.716 58.2944 216.313C61.0392 216.671 61.8346 213.289 60.6875 212.983C55.4306 211.648 55.0399 209.822 53.182 207.511C52.7934 207.071 52.2481 206.799 51.6624 206.755Z" fill="#263238"/>
<path d="M71.105 80.6824C71.105 80.6824 82.2552 132.208 84.3745 148.758C86.0153 161.72 86.0215 198.5 86.0215 198.5L79.5215 201.5L78.5215 192.5C74.583 162.878 66.5482 134.55 57.8543 105.98L51.1196 83.6933L71.105 80.6824Z" fill="#FFD0A6"/>
<path d="M66.8135 81.4284C66.8135 81.4284 65.7831 145.137 64.5058 154.955C63.0173 166.505 53.1702 197.685 53.1702 197.685L47.2234 196.79C47.2234 196.79 48.8227 171.538 50.316 157.576C51.6011 145.689 51.4726 125.377 51.4391 112.062C51.4391 112.062 48.2098 90.067 49.6952 84.3118L66.8135 81.4284Z" fill="#FFD0A6"/>
<path opacity="0.1" d="M71.6007 155.071L70.9861 151.828L84.8061 150.451L84.8871 154.005L71.6007 155.071Z" fill="black"/>
<path opacity="0.1" d="M63.9284 156.519L50.3225 157.441L51.5146 151.963L66.0575 150.81L63.9284 156.519Z" fill="black"/>
<path d="M60.9157 99.5748L70.0113 129.972L58.7912 131.502L60.9157 99.5748Z" fill="#407BFF"/>
<path opacity="0.6" d="M60.9157 99.5748L70.0113 129.972L58.7912 131.502L60.9157 99.5748Z" fill="white"/>
<path opacity="0.1" d="M59.3422 115.248L62.0681 93.4385L62.9751 96.1352C67.2881 108.963 69.083 122.503 68.261 136.011L67.9082 141.716C66.9992 138.764 62.6395 122.709 59.3422 115.248Z" fill="black"/>
<path d="M19.5818 86.2582L16.2657 89.4896C16.2657 89.4896 12.8145 90.8933 12.5423 93.0211C12.3764 94.3137 14.1016 95.4068 15.495 96.0657C16.0251 96.3164 16.6102 96.4283 17.1954 96.3907C17.7806 96.3532 18.3467 96.1676 18.8404 95.8512C20.2471 94.9256 21.5698 92.0793 21.5698 92.0793L23.1977 88.0763L19.5818 86.2582Z" fill="#FFD0A6"/>
<path d="M19.6017 86.2564C19.76 85.9185 23.4553 79.7339 23.4553 79.7339L26.8899 81.6165L22.5048 89.2954C22.5048 89.2954 18.4146 88.8453 19.6017 86.2564Z" fill="#FFD0A6"/>
<path d="M19.8827 84.0001L18.9658 85.9464L23.7248 88.72L24.9765 86.3126L19.8827 84.0001Z" fill="black"/>
<path opacity="0.7" d="M19.8827 84.0001L18.9658 85.9464L23.7248 88.72L24.9765 86.3126L19.8827 84.0001Z" fill="white"/>
<path d="M9.75812 84.2781L1.23926 96.3062L19.1133 108.966L27.6322 96.9375L9.75812 84.2781Z" fill="#407BFF"/>
<path opacity="0.2" d="M9.75812 84.2781L1.23926 96.3062L19.1133 108.966L27.6322 96.9375L9.75812 84.2781Z" fill="black"/>
<path d="M8.51886 86.0237L0 98.0518L17.8741 110.711L26.3929 98.6831L8.51886 86.0237Z" fill="#407BFF"/>
<path opacity="0.2" d="M8.51886 86.0237L0 98.0518L17.8741 110.711L26.3929 98.6831L8.51886 86.0237Z" fill="black"/>
<path d="M8.14303 90.2741L3.99688 96.1282C3.71222 96.5301 3.80728 97.0867 4.20921 97.3714L5.77668 98.4816C6.17861 98.7662 6.73521 98.6712 7.01988 98.2692L11.166 92.4152C11.4507 92.0133 11.3556 91.4567 10.9537 91.172L9.38623 90.0618C8.9843 89.7772 8.4277 89.8722 8.14303 90.2741Z" fill="white"/>
<path d="M27.0454 97.0445L26.329 98.1083L9.13777 85.9233L9.78511 84.9735L27.0454 97.0445Z" fill="white"/>
<path d="M10.1623 92.2096L6.80697 97.0672L6.30433 96.7065L9.72243 91.8928L10.1623 92.2096Z" fill="#263238"/>
<path d="M70.0215 76.0439C69.2215 77.6439 51.6882 79.7106 43.0215 80.5439C40.3548 89.3772 36.5215 106.544 35.0215 112.044C33.969 115.903 21.3548 134.711 14.5215 143.544C16.5215 145.211 23.4215 149.644 35.0215 154.044C49.5215 159.544 101.521 148.044 104.521 144.544C107.521 141.044 71.0215 74.0439 70.0215 76.0439Z" fill="#57C7FF"/>
<path d="M90.2606 15.1332L92.101 11.2006L96.2314 7.71334C96.584 7.40542 96.8431 7.00464 96.979 6.55667C97.1149 6.1087 97.1223 5.63156 97.0003 5.17961L96.2336 2.16616C96.0721 1.54291 95.6815 1.0035 95.1397 0.655609C94.5979 0.307714 93.9449 0.176923 93.3109 0.289351L92.2264 0.48941C91.6752 0.588797 91.1739 0.871856 90.8042 1.2925C90.4344 1.71314 90.2179 2.2466 90.19 2.80596C90.1633 3.3726 89.9415 3.91256 89.5622 4.33441L89.0064 4.97159C88.7639 5.24322 88.584 5.56474 88.4793 5.91347C88.3746 6.26221 88.3476 6.62967 88.4004 6.98994L88.6614 8.56112L86.4084 13.1974L90.2606 15.1332Z" fill="#FFD0A6"/>
<path d="M91.3394 14.973L92.3023 12.6392L86.9687 9.93397L86.0901 12.5655L91.3394 14.973Z" fill="#263238"/>
<path opacity="0.7" d="M91.3394 14.973L92.3023 12.6392L86.9687 9.93397L86.0901 12.5655L91.3394 14.973Z" fill="white"/>
<path d="M56.9938 32.3695L65.2177 31.8105C69.1756 30.751 72.8504 28.8299 75.9792 26.1845C79.108 23.5391 81.6135 20.2349 83.3163 16.5083L85.8731 10.9316L92.4508 14.6231L87.0697 27.1466C86.224 29.2851 84.9074 31.2055 83.2176 32.7652C81.5279 34.325 79.5084 35.484 77.3093 36.1562L59.6094 42.4649L56.9938 32.3695Z" fill="#263238"/>
<path opacity="0.5" d="M56.9938 32.3695L65.2177 31.8105C69.1756 30.751 72.8504 28.8299 75.9792 26.1845C79.108 23.5391 81.6135 20.2349 83.3163 16.5083L85.8731 10.9316L92.4508 14.6231L87.0697 27.1466C86.224 29.2851 84.9074 31.2055 83.2176 32.7652C81.5279 34.325 79.5084 35.484 77.3093 36.1562L59.6094 42.4649L56.9938 32.3695Z" fill="white"/>
<path opacity="0.2" d="M78.3397 35.6657L60.4286 42.2677L60.0925 40.5061L63.2147 39.5139L78.3397 35.6657Z" fill="black"/>
<path d="M67.5617 40.6823L72.6896 77.9971C64.2488 81.2207 59.3897 81.6784 46.1295 82.8109L43.0303 82.7967L34.3551 44.2423C34.0878 43.0332 34.3059 41.7693 34.9677 40.6923C35.6295 39.6153 36.6885 38.8008 37.9422 38.4047L56.8488 32.2932L61.8863 32.549C65.0948 31.5301 67.1379 37.5364 67.5617 40.6823Z" fill="white"/>
<path d="M33.3369 43.8249L28.658 68.1206L18.9486 84.1186L25.165 87.2605L37.9853 70.3695L43.6594 47.1403C43.6594 47.1403 43.004 37.4295 37.3975 39.2814C36.3954 39.6399 35.4989 40.2434 34.7897 41.037C34.0805 41.8306 33.5811 42.789 33.3369 43.8249Z" fill="#263238"/>
<path opacity="0.5" d="M33.3369 43.8249L28.658 68.1206L18.9486 84.1186L25.165 87.2605L37.9853 70.3695L43.6594 47.1403C43.6594 47.1403 43.004 37.4295 37.3975 39.2814C36.3954 39.6399 35.4989 40.2434 34.7897 41.037C34.0805 41.8306 33.5811 42.789 33.3369 43.8249Z" fill="white"/>
<path opacity="0.2" d="M37.9829 70.3499L38.2905 69.1043L37.242 55.2175L35.4881 73.6396L37.9829 70.3499Z" fill="black"/>
<path d="M49.096 86.5906C49.1407 87.1179 49.1854 87.6453 49.2317 88.1921C49.2995 88.9928 49.321 89.827 49.3726 90.6684L39.3853 91.4259C39.3794 89.4988 39.3472 87.5705 39.2887 85.6412C39.2796 85.5338 39.2713 85.4362 39.2622 85.3288C39.2301 84.0202 39.1784 82.7132 39.1071 81.4079C38.5165 69.1112 36.9412 56.8817 34.3963 44.8368C34.3624 44.6071 34.3428 44.3755 34.3376 44.1435C34.2529 42.9535 34.5661 41.7691 35.228 40.7766C35.8899 39.7841 36.8629 39.0397 37.994 38.6605L43.9974 36.6177C43.9974 36.6177 44.968 44.7084 46.0332 54.1484C47.0984 63.5884 48.2883 74.3849 48.7075 79.798C48.7899 81.699 48.9444 83.9873 49.096 86.5906Z" fill="#263238"/>
<path opacity="0.5" d="M49.096 86.5906C49.1407 87.1179 49.1854 87.6453 49.2317 88.1921C49.2995 88.9928 49.321 89.827 49.3726 90.6684L39.3853 91.4259C39.3794 89.4988 39.3472 87.5705 39.2887 85.6412C39.2796 85.5338 39.2713 85.4362 39.2622 85.3288C39.2301 84.0202 39.1784 82.7132 39.1071 81.4079C38.5165 69.1112 36.9412 56.8817 34.3963 44.8368C34.3624 44.6071 34.3428 44.3755 34.3376 44.1435C34.2529 42.9535 34.5661 41.7691 35.228 40.7766C35.8899 39.7841 36.8629 39.0397 37.994 38.6605L43.9974 36.6177C43.9974 36.6177 44.968 44.7084 46.0332 54.1484C47.0984 63.5884 48.2883 74.3849 48.7075 79.798C48.7899 81.699 48.9444 83.9873 49.096 86.5906Z" fill="white"/>
<path d="M55.9347 36.7079L53.1658 41.9878L47.6067 39.1738L48.6442 37.2566L54.3043 35.9215L55.9347 36.7079Z" fill="#263238"/>
<path opacity="0.5" d="M55.9347 36.7079L53.1658 41.9878L47.6067 39.1738L48.6442 37.2566L54.3043 35.9215L55.9347 36.7079Z" fill="#3362CC"/>
<path d="M54.5219 14.0001C54.5219 14.0001 53.284 2.84708 47.5342 8.60636L54.5219 14.0001Z" fill="#263238"/>
<path d="M54.9957 35.3712L53.4744 37.6146L50.6586 38.276L45.9393 37.2497C45.95 37.1749 45.9668 37.1012 45.9895 37.0291C46.9575 33.7113 45.0595 28.2563 43.6953 25.1558L52.1043 29.5675C52.0465 31.9034 52.6683 34.3685 54.9957 35.3712Z" fill="#FFD0A6"/>
<path opacity="0.1" d="M48.5509 27.2756C48.5509 27.2756 50.0935 27.4892 51.6989 27.8646C51.6487 28.968 51.819 30.0703 52.1998 31.1071C50.8246 31.3833 49.398 31.2375 48.1071 30.6887C46.8162 30.1398 45.7214 29.2137 44.9662 28.0317C44.8263 27.5419 44.6784 27.0726 44.5215 26.6138L48.5509 27.2756Z" fill="black"/>
<path d="M40.6574 19.364C42.5 24.2805 44.0838 26.1969 47.5215 28C54.8121 30.9382 57.5663 27.6348 57.2806 22.2887C57.0174 17.4402 54.0566 10.236 48.3471 9.71091C46.4055 9.51134 44.4591 10.0725 42.9345 11.2713C41.41 12.4702 40.4318 14.2089 40.2143 16.1064C40.0973 17.2122 40.2491 18.3284 40.6574 19.364Z" fill="#FFD0A6"/>
<path d="M53.0225 17.3041C54.0031 18.3417 55.1216 19.2398 56.3466 19.973C56.1422 20.282 55.8738 20.5436 55.5595 20.7399C55.2453 20.9362 54.8925 21.0627 54.5251 21.1108L53.0225 17.3041Z" fill="#F96767"/>
<path d="M50.1482 17.164C50.2912 17.5748 50.2169 17.9745 49.9297 18.0677C49.6426 18.1608 49.3354 17.9016 49.1835 17.5014C49.0316 17.1012 49.1148 16.6909 49.4117 16.5969C49.7087 16.5029 49.998 16.7833 50.1482 17.164Z" fill="#263238"/>
<path d="M54.9685 15.9C55.1115 16.3108 55.0372 16.7105 54.75 16.8036C54.4628 16.8968 54.1467 16.6482 54.0037 16.2374C53.8607 15.8266 53.9359 15.4367 54.232 15.3329C54.5281 15.2291 54.8093 15.5299 54.9685 15.9Z" fill="#263238"/>
<path d="M57.8794 32.0289L54.6652 31.8192L51.0788 36.1554L43.3579 34.99L41.6724 37.385L49.2562 41.2274L51.4482 37.265L55.6699 39.2678L57.8794 32.0289Z" fill="#263238"/>
<path opacity="0.7" d="M57.8794 32.0289L54.6652 31.8192L51.0788 36.1554L43.3579 34.99L41.6724 37.385L49.2562 41.2274L51.4482 37.265L55.6699 39.2678L57.8794 32.0289Z" fill="#407BFF"/>
<path d="M77.9887 84.1608L69.0792 86.9612L59.5215 32.1829L64.5629 32.4836C67.8037 31.3829 69.8813 37.7965 70.3327 41.1513L72.0295 54.2161C72.0832 54.8509 72.1948 55.4709 72.2884 56.1121C72.3281 56.5808 72.4297 57.0836 72.4873 57.5311C72.6146 58.3367 72.7329 59.1528 72.8601 59.9583C72.9114 60.5638 73.0506 61.1617 73.1507 61.763C73.5611 64.2854 74.0186 66.7841 74.516 69.2892C75.0134 71.7944 75.535 74.1205 76.1179 76.5889C76.1278 76.7061 76.1385 76.833 76.1493 76.96C76.6904 79.2844 77.2787 81.5851 77.8971 83.8932C77.947 84.0168 77.9739 84.103 77.9887 84.1608Z" fill="#263238"/>
<g opacity="0.5">
<path d="M77.9887 84.1608L69.0792 86.9612L59.5215 32.1829L64.5629 32.4836C67.8037 31.3829 69.8813 37.7965 70.3327 41.1513L72.0295 54.2161C72.0832 54.8509 72.1948 55.4709 72.2884 56.1121C72.3281 56.5808 72.4297 57.0836 72.4873 57.5311C72.6146 58.3367 72.7329 59.1528 72.8601 59.9583C72.9114 60.5638 73.0506 61.1617 73.1507 61.763C73.5611 64.2854 74.0186 66.7841 74.516 69.2892C75.0134 71.7944 75.535 74.1205 76.1179 76.5889C76.1278 76.7061 76.1385 76.833 76.1493 76.96C76.6904 79.2844 77.2787 81.5851 77.8971 83.8932C77.947 84.0168 77.9739 84.103 77.9887 84.1608Z" fill="white"/>
</g>
<path d="M56.2917 13.8838C56.2417 13.9218 56.1782 13.945 56.1111 13.9498C56.044 13.9546 55.9769 13.9407 55.92 13.9104C55.4398 13.7322 54.9215 13.639 54.397 13.6364C53.8725 13.6338 53.3529 13.7219 52.8703 13.8953C52.8322 13.9106 52.7908 13.9195 52.7486 13.9213C52.7064 13.9231 52.6642 13.9179 52.6244 13.906C52.5845 13.8941 52.5479 13.8757 52.5165 13.8518C52.4851 13.8279 52.4596 13.7991 52.4414 13.7669C52.4233 13.7347 52.4128 13.6998 52.4106 13.6642C52.4084 13.6286 52.4145 13.5929 52.4287 13.5593C52.4428 13.5257 52.4646 13.4948 52.4929 13.4683C52.5212 13.4418 52.5554 13.4203 52.5936 13.405C53.1754 13.1943 53.804 13.0916 54.437 13.1039C55.0699 13.1162 55.6923 13.2432 56.2619 13.4762C56.3329 13.5131 56.3838 13.572 56.4039 13.6403C56.4241 13.7086 56.4117 13.7807 56.3696 13.8414C56.3511 13.8635 56.3232 13.8787 56.2917 13.8838Z" fill="#2D2F31"/>
<path d="M46.6582 16.8105C46.6177 16.8447 46.5671 16.8691 46.5116 16.8811C46.4561 16.8931 46.3978 16.8923 46.3428 16.8787C46.3016 16.8713 46.2626 16.8572 46.2279 16.837C46.1932 16.8168 46.1636 16.7911 46.1408 16.7612C46.118 16.7314 46.1024 16.698 46.0949 16.663C46.0875 16.6281 46.0883 16.5922 46.0973 16.5575C46.208 16.1309 46.4415 15.7339 46.7772 15.4016C47.113 15.0693 47.5405 14.8118 48.0222 14.6521C48.0977 14.6284 48.1811 14.6305 48.2548 14.658C48.3285 14.6856 48.3865 14.7363 48.4165 14.7993C48.4302 14.8322 48.4359 14.8671 48.4334 14.9019C48.4309 14.9367 48.4201 14.9707 48.4017 15.0019C48.3833 15.0332 48.3576 15.0609 48.3263 15.0836C48.2949 15.1064 48.2585 15.1235 48.2191 15.1341C47.8486 15.2714 47.521 15.4797 47.2625 15.7424C47.004 16.0051 46.8215 16.315 46.7296 16.6475C46.7311 16.6773 46.7255 16.7071 46.7132 16.735C46.701 16.763 46.6822 16.7886 46.6582 16.8105Z" fill="#2D2F31"/>
<path d="M52.5217 24.5408C52.2335 24.5303 51.9465 24.4976 51.6633 24.443C51.6211 24.4351 51.5833 24.4118 51.5573 24.3777C51.5312 24.3436 51.5186 24.3011 51.522 24.2583C51.5366 24.2163 51.5649 24.1806 51.6024 24.1569C51.6399 24.1332 51.6844 24.123 51.7285 24.1279C52.4335 24.2725 53.1626 24.2495 53.8572 24.0607C54.5517 23.872 55.1922 23.5228 55.727 23.0413C55.7598 23.0135 55.8018 22.9988 55.8447 23.0001C55.8877 23.0014 55.9287 23.0185 55.9597 23.0482C55.9908 23.0779 56.0098 23.1181 56.0129 23.161C56.0161 23.2038 56.0033 23.2464 55.977 23.2804C55.5138 23.7097 54.9696 24.0423 54.3763 24.2587C53.783 24.4751 53.1525 24.571 52.5217 24.5408Z" fill="#263238"/>
<path d="M42.0214 15.4999C42.0214 12.2999 46.3547 10.4999 48.5214 9.99986H50.0215C51.0215 9.99986 50.3215 8.2 47.5215 7C44.7215 5.8 39.8548 7.66653 38.5214 8.49986C31.3214 12.4999 35.5214 21.4999 38.5214 25.4999L45.0214 28.4999C44.6881 28.1665 43.9214 26.9999 43.5214 24.9999C43.0214 22.4999 42.0214 19.4999 42.0214 15.4999Z" fill="#263238"/>
<path d="M38.8724 22.9656C39.1615 23.4441 39.549 23.8642 40.0125 24.2017C40.476 24.5391 41.0063 24.7872 41.5728 24.9316C43.0912 25.3133 43.8351 24.0344 43.3969 22.6792C42.9995 21.4767 41.7257 19.8162 40.1971 20.0166C39.8632 20.0731 39.5497 20.2068 39.2849 20.4055C39.0202 20.6043 38.8126 20.8618 38.681 21.1547C38.5494 21.4476 38.498 21.7666 38.5314 22.0829C38.5648 22.3991 38.682 22.7025 38.8724 22.9656Z" fill="#FFD0A6"/>
</svg>
