<svg width="40" height="40" viewBox="0 0 40 40" fill="none" xmlns="http://www.w3.org/2000/svg">
<path d="M19.5408 38.7689C30.122 38.7689 38.6998 30.1912 38.6998 19.6099C38.6998 9.02872 30.122 0.450928 19.5408 0.450928C8.9596 0.450928 0.381836 9.02872 0.381836 19.6099C0.381836 30.1912 8.9596 38.7689 19.5408 38.7689Z" fill="#F0F0F0"/>
<path d="M19.6 39.2C17.0261 39.2 14.4774 38.693 12.0994 37.708C9.72143 36.7231 7.56075 35.2793 5.74072 33.4593C3.92069 31.6393 2.47694 29.4786 1.49195 27.1006C0.50696 24.7226 0 22.1739 0 19.6C0 17.0261 0.50696 14.4774 1.49195 12.0994C2.47694 9.72143 3.92069 7.56075 5.74072 5.74072C7.56075 3.92069 9.72143 2.47694 12.0994 1.49195C14.4774 0.50696 17.0261 -1.08482e-07 19.6 0V0.862405C14.6331 0.862405 9.86958 2.83552 6.35744 6.34766C2.84529 9.8598 0.872214 14.6233 0.872214 19.5902C0.872214 24.5571 2.84529 29.3206 6.35744 32.8327C9.86958 36.3449 14.6331 38.318 19.6 38.318V39.2Z" fill="#C8C8C8"/>
<path d="M19.5996 39.1999V38.3375C22.059 38.3375 24.4943 37.8531 26.7664 36.912C29.0386 35.9708 31.1031 34.5913 32.8422 32.8523C34.5812 31.1133 35.9607 29.0487 36.9018 26.7766C37.843 24.5044 38.3274 22.0691 38.3274 19.6097C38.3274 17.1504 37.843 14.7151 36.9018 12.4429C35.9607 10.1708 34.5812 8.10623 32.8422 6.36719C31.1031 4.62815 29.0386 3.24868 26.7664 2.30752C24.4943 1.36636 22.059 0.881936 19.5996 0.881936V0.0195312C24.7979 0.0195313 29.7832 2.08454 33.4589 5.76025C37.1346 9.43597 39.1996 14.4213 39.1996 19.6195C39.1996 24.8178 37.1346 29.8031 33.4589 33.4788C29.7832 37.1545 24.7979 39.2195 19.5996 39.2195V39.1999Z" fill="#C8C8C8"/>
<path d="M19.8356 38.5531L19.3652 37.8279C25.5294 33.9079 28.7438 25.3819 28.7438 19.0315H29.6062C29.6062 25.6073 26.2546 34.4273 19.8356 38.5531Z" fill="#C8C8C8"/>
<path d="M20.0304 0.450928H19.168V38.7689H20.0304V0.450928Z" fill="#C8C8C8"/>
<path d="M38.7496 19.502H0.451172V20.3644H38.7496V19.502Z" fill="#C8C8C8"/>
<path d="M35.3881 30.0271H3.8125V30.8895H35.3881V30.0271Z" fill="#C8C8C8"/>
</svg>
