<svg width="13" height="13" viewBox="0 0 13 13" fill="none" xmlns="http://www.w3.org/2000/svg">
<path d="M10.2014 2.42068C10.0196 2.25359 9.8258 2.10014 9.62146 1.96159L9.86026 0.934864C9.60681 0.780489 9.34251 0.644682 9.06943 0.528513L8.37474 1.3195C7.91155 1.15062 7.42735 1.04624 6.93573 1.00931L6.6256 0.00118998C6.32827 -0.00446564 6.0309 0.010043 5.73553 0.0446165L5.53084 1.07755C5.04437 1.16165 4.57169 1.31194 4.12595 1.52422L3.35993 0.804582C3.09929 0.949022 2.84856 1.11068 2.60941 1.28848L2.95056 2.27178C2.76249 2.43139 2.58532 2.60342 2.42023 2.7867C2.25507 2.96901 2.10176 3.16172 1.96124 3.36365L0.934711 3.12481C0.782191 3.37933 0.646477 3.64356 0.528439 3.9158L1.31927 4.61062C1.15041 5.07496 1.04606 5.56029 1.00914 6.05301L0.00121749 6.3632C-0.00451344 6.66059 0.00999263 6.95802 0.0446356 7.25344L1.07737 7.46127C1.16497 7.94955 1.31942 8.42343 1.53636 8.86954L0.816861 9.63881C0.958383 9.89955 1.11906 10.1494 1.29756 10.3864L2.29618 10.0483C2.45381 10.2381 2.62482 10.4164 2.8079 10.5818C2.99061 10.7478 3.18437 10.9011 3.38784 11.0409L3.14594 12.0645C3.40108 12.2187 3.66632 12.3555 3.93987 12.474L4.63767 11.683C5.10285 11.8486 5.58764 11.9529 6.07977 11.9932L6.3899 12.9982C6.68726 13.0055 6.98474 12.9909 7.27998 12.9547L7.48777 11.9249C7.97389 11.8378 8.44631 11.6866 8.89266 11.4751L9.63697 12.1979C9.897 12.0552 10.1467 11.8946 10.3844 11.7171L10.0463 10.7183C10.2354 10.5598 10.4136 10.3888 10.5798 10.2065C10.745 10.0231 10.8983 9.82934 11.0388 9.6264L12.0622 9.86525C12.2175 9.6118 12.3543 9.34745 12.4716 9.07426L11.6807 8.37944C11.8481 7.91467 11.9524 7.42955 11.9909 6.93705L12.9988 6.62686C13.0045 6.32947 12.99 6.03203 12.9554 5.73661L11.9226 5.53189C11.8316 5.04707 11.6762 4.57659 11.4605 4.13293L12.18 3.36676C12.0374 3.10568 11.8768 2.85485 11.6993 2.6161L10.7007 2.9542C10.5463 2.76547 10.3795 2.58723 10.2014 2.42068ZM8.78721 8.62449C8.38887 9.0631 7.86945 9.37373 7.29461 9.51712C6.71978 9.66051 6.11535 9.63021 5.55773 9.43006C5.00011 9.22991 4.51435 8.86889 4.16184 8.39264C3.80933 7.91639 3.60592 7.34631 3.5773 6.75444C3.54869 6.16258 3.69617 5.57552 4.00109 5.06748C4.30602 4.55944 4.7547 4.15323 5.29041 3.90021C5.82612 3.64718 6.42481 3.5587 7.01079 3.64595C7.59677 3.7332 8.14373 3.99226 8.58253 4.39039C8.87588 4.65506 9.11399 4.97515 9.28317 5.33224C9.45234 5.68933 9.54922 6.07635 9.56825 6.47104C9.58727 6.86573 9.52806 7.26029 9.39402 7.632C9.25997 8.0037 9.05375 8.34522 8.78721 8.63689V8.62449Z" fill="#EEEEEE"/>
</svg>
