<svg width="29" height="29" viewBox="0 0 29 29" fill="none" xmlns="http://www.w3.org/2000/svg">
<path opacity="0.5" d="M21.6191 6.3014C21.3262 6.03612 21.0186 5.78746 20.6979 5.5566L21.5309 1.9698C21.0924 1.71469 20.641 1.48245 20.1785 1.274L17.7579 4.0376C17.0101 3.78992 16.2381 3.62238 15.4549 3.5378L14.3867 0C13.8771 0 13.4067 1.79619e-06 12.8579 0.0784018L12.1424 3.6848C11.3707 3.84126 10.6182 4.08113 9.89827 4.4002L7.21305 1.8816C6.78185 2.1364 6.35065 2.4108 5.92925 2.7146L7.11504 6.1936C6.81966 6.45626 6.53835 6.73431 6.27226 7.0266C6.00766 7.3206 5.76265 7.6244 5.52745 7.938L1.95046 7.105C1.69534 7.54349 1.46311 7.99489 1.25466 8.4574L4.01827 10.8878C3.76394 11.6338 3.59623 12.4065 3.51846 13.1908L0.000264845 14.2492C-0.00295631 14.7599 0.0232072 15.2703 0.0786517 15.778L3.67527 16.4934C3.8351 17.2655 4.07825 18.018 4.40046 18.7376L1.86226 21.4424C2.11706 21.8834 2.39146 22.3048 2.68546 22.7262L6.17425 21.5404C6.43102 21.838 6.70594 22.1195 6.99745 22.3832C7.29145 22.6478 7.60505 22.8928 7.91865 23.128L7.07587 26.705C7.51664 26.9621 7.9714 27.1944 8.43805 27.4008L10.8587 24.6372C11.6052 24.8896 12.3777 25.0572 13.1617 25.137L14.2299 28.6552C14.7405 28.6584 15.251 28.6322 15.7587 28.5768L16.4741 24.9802C17.2462 24.8204 17.9986 24.5772 18.7183 24.255L21.3937 26.7736C21.8347 26.5188 22.2659 26.2444 22.6775 25.9504L21.5015 22.4616C21.7968 22.2023 22.0781 21.9275 22.3443 21.6384C22.6089 21.3444 22.8539 21.0308 23.0891 20.7172L26.6661 21.56C26.9212 21.1182 27.1535 20.6635 27.3618 20.1978L24.5983 17.7772C24.8506 17.0307 25.0183 16.2582 25.0981 15.4742L28.6162 14.406C28.6162 13.8964 28.6163 13.426 28.5379 12.887L24.9412 12.1618C24.7814 11.3897 24.5383 10.6372 24.2161 9.9176L26.7347 7.2422C26.4811 6.7991 26.203 6.3705 25.9017 5.9584L22.4423 7.1344C22.1854 6.83994 21.9105 6.56174 21.6191 6.3014ZM19.0711 18.62C18.2182 19.5606 17.1055 20.2271 15.8738 20.5352C14.642 20.8433 13.3466 20.7793 12.1513 20.3511C10.956 19.9229 9.91447 19.1499 9.15855 18.1297C8.40262 17.1096 7.96623 15.8882 7.90454 14.62C7.84284 13.3518 8.15862 12.0938 8.81195 11.0051C9.46528 9.91643 10.4268 9.04595 11.5749 8.50377C12.723 7.96159 14.0061 7.77208 15.262 7.9592C16.5178 8.14632 17.6899 8.70166 18.63 9.555C19.8903 10.6988 20.6447 12.2963 20.7274 13.9962C20.81 15.6961 20.2143 17.3593 19.0711 18.62Z" fill="#E0E0E0"/>
</svg>
